<svg width="28" height="28" viewBox="0 0 28 28" fill="none" xmlns="http://www.w3.org/2000/svg">
<path d="M18.1992 8.7998C18.1659 8.79981 18.1326 8.80149 18.0994 8.80483C18.0662 8.80816 18.0332 8.81315 18.0006 8.81978C17.9679 8.82639 17.9356 8.83463 17.9037 8.84447C17.8719 8.85432 17.8405 8.86576 17.8098 8.87875C17.7791 8.89174 17.7491 8.90626 17.7198 8.92225C17.6905 8.93823 17.6621 8.95566 17.6346 8.97448C17.6071 8.99331 17.5805 9.01351 17.555 9.035C17.5295 9.05647 17.5051 9.07921 17.4819 9.10312C17.4587 9.12704 17.4366 9.15211 17.4159 9.17824C17.3952 9.20435 17.3758 9.23149 17.3578 9.25954C17.3398 9.28758 17.3232 9.31651 17.308 9.34621C17.2929 9.37593 17.2793 9.4064 17.2672 9.43748C17.2551 9.46855 17.2446 9.5002 17.2357 9.53231C17.2268 9.56444 17.2195 9.597 17.2138 9.62985C17.2081 9.6627 17.2041 9.69581 17.2017 9.72907C17.2001 9.75261 17.1992 9.7762 17.1992 9.7998C17.1992 9.83315 17.2009 9.86648 17.2042 9.89966C17.2076 9.93283 17.2125 9.96582 17.2191 9.99849C17.2258 10.0312 17.234 10.0635 17.2439 10.0953C17.2537 10.1272 17.2652 10.1585 17.2782 10.1892C17.2912 10.2199 17.3057 10.25 17.3217 10.2793C17.3376 10.3085 17.3551 10.3369 17.3739 10.3645C17.3927 10.392 17.4129 10.4185 17.4344 10.444C17.4558 10.4695 17.4786 10.4939 17.5025 10.5172C17.5264 10.5404 17.5515 10.5624 17.5776 10.5831C17.6037 10.6039 17.6309 10.6233 17.6589 10.6413C17.687 10.6593 17.7159 10.6759 17.7457 10.691C17.7754 10.7061 17.8058 10.7198 17.8369 10.7319C17.8679 10.7439 17.8996 10.7545 17.9317 10.7634C17.9639 10.7723 17.9964 10.7796 18.0293 10.7852C18.0621 10.7909 18.0952 10.7949 18.1285 10.7973C18.152 10.799 18.1756 10.7998 18.1992 10.7998C18.2326 10.7998 18.2659 10.7981 18.299 10.7948C18.3322 10.7915 18.3652 10.7865 18.3979 10.7799C18.4306 10.7732 18.4629 10.765 18.4947 10.7551C18.5266 10.7453 18.5579 10.7338 18.5886 10.7209C18.6193 10.7079 18.6494 10.6934 18.6786 10.6774C18.7079 10.6614 18.7363 10.644 18.7639 10.6251C18.7914 10.6063 18.8179 10.5861 18.8434 10.5647C18.8689 10.5432 18.8933 10.5204 18.9166 10.4965C18.9398 10.4726 18.9618 10.4475 18.9825 10.4214C19.0033 10.3953 19.0227 10.3682 19.0407 10.3401C19.0587 10.3121 19.0753 10.2831 19.0904 10.2534C19.1055 10.2237 19.1192 10.1932 19.1313 10.1622C19.1433 10.1311 19.1539 10.0994 19.1628 10.0673C19.1717 10.0352 19.179 10.0026 19.1846 9.96976C19.1903 9.93691 19.1943 9.90379 19.1967 9.87054C19.1984 9.847 19.1992 9.82341 19.1992 9.7998C19.1992 9.76647 19.1975 9.73316 19.1942 9.69999C19.1909 9.66682 19.1859 9.63384 19.1793 9.60116C19.1727 9.56849 19.1644 9.53616 19.1546 9.50431C19.1447 9.47246 19.1333 9.44113 19.1203 9.41042C19.1073 9.37971 19.0928 9.34966 19.0768 9.3204C19.0608 9.29114 19.0434 9.2627 19.0246 9.23519C19.0057 9.20767 18.9855 9.1811 18.964 9.1556C18.9426 9.1301 18.9198 9.10569 18.8959 9.08246C18.872 9.05923 18.847 9.03721 18.8208 9.01649C18.7947 8.99577 18.7676 8.97638 18.7395 8.95838C18.7115 8.94036 18.6825 8.92376 18.6528 8.90864C18.6231 8.89351 18.5926 8.87988 18.5616 8.86779C18.5305 8.85571 18.4988 8.84519 18.4667 8.83627C18.4346 8.82735 18.402 8.82004 18.3692 8.81436C18.3363 8.8087 18.3032 8.80469 18.2699 8.80234C18.2464 8.80066 18.2228 8.79981 18.1992 8.7998Z" fill="#E4E0D8"/>
<rect x="6.66667" y="6.66667" width="14.6667" height="14.6667" rx="3.77778" stroke="#E4E0D8" stroke-width="1.33333"/>
<circle cx="14" cy="14" r="3.33333" stroke="#E4E0D8" stroke-width="1.33333"/>
</svg>
