<svg width="28" height="28" viewBox="0 0 28 28" fill="none" xmlns="http://www.w3.org/2000/svg">
<path d="M22.1004 15.6735V21.6501H18.7651V16.1517C18.7651 14.7173 18.0504 13.761 16.8592 13.761C15.6024 13.761 14.9533 14.7173 14.9533 15.9126L14.9724 21.6501H11.1416V11.1313H14.9493L14.9533 12.8048C14.9533 12.8048 16.1445 11.1313 18.2886 11.1313C20.671 11.1313 22.1004 12.5025 22.1004 15.6735ZM7.80627 6.3501C6.61804 6.3501 5.90039 7.06729 5.90039 8.02354C5.90039 8.97979 6.6151 9.69697 7.81972 9.69697C9.02434 9.69697 9.71216 8.94049 9.71216 8.02354C9.71216 7.06729 8.9945 6.3501 7.80627 6.3501ZM5.90039 21.6501H9.71216V11.1313H5.90039V21.6501Z" fill="#E4E0D8"/>
</svg>
