<svg width="87" height="65" viewBox="0 0 87 65" fill="none" xmlns="http://www.w3.org/2000/svg">
<path fill-rule="evenodd" clip-rule="evenodd" d="M67.886 0.0493164L68.7219 2.57709L71.2696 2.63681L69.2394 4.26892L69.9759 6.8365L67.886 5.30391L65.7762 6.8365L66.5126 4.26892L64.4824 2.63681L67.0301 2.57709L67.886 0.0493164Z" fill="#E4E0D8"/>
<path fill-rule="evenodd" clip-rule="evenodd" d="M75.5891 2.21924L76.425 4.76692L78.9727 4.80673L76.9425 6.43884L77.679 9.00643L75.5891 7.47384L73.4793 9.00643L74.2356 6.43884L72.1855 4.82663L74.7531 4.76692L75.5891 2.21924Z" fill="#E4E0D8"/>
<path fill-rule="evenodd" clip-rule="evenodd" d="M81.204 7.83252L82.0399 10.3802L84.6075 10.4399L82.5574 12.0521L83.3137 14.6396L81.204 13.107L79.1141 14.6396L79.8505 12.0521L77.8203 10.4399L80.368 10.3802L81.204 7.83252Z" fill="#E4E0D8"/>
<path fill-rule="evenodd" clip-rule="evenodd" d="M83.4719 15.814L84.3079 18.3616L86.8755 18.4015L84.8254 20.0336L85.5618 22.6011L83.4719 21.0686L81.382 22.6011L82.1184 20.0336L80.0684 18.4015L82.636 18.3616L83.4719 15.814Z" fill="#E4E0D8"/>
<path fill-rule="evenodd" clip-rule="evenodd" d="M81.1649 23.7349L82.0208 26.2626L84.5684 26.3224L82.5383 27.9545L83.2747 30.5221L81.1649 28.9895L79.075 30.5221L79.8114 27.9545L77.7812 26.3224L80.3289 26.2626L81.1649 23.7349Z" fill="#E4E0D8"/>
<path fill-rule="evenodd" clip-rule="evenodd" d="M75.4094 28.9497L76.2454 31.4974L78.7931 31.5571L76.7629 33.1693L77.4993 35.7568L75.4094 34.2043L73.2996 35.7568L74.036 33.1693L72.0059 31.5571L74.5735 31.4974L75.4094 28.9497Z" fill="#E4E0D8"/>
<path fill-rule="evenodd" clip-rule="evenodd" d="M60.243 2.22021L61.079 4.7679L63.6466 4.80771L61.6164 6.43982L62.3528 9.0074L60.243 7.47481L58.1531 9.0074L58.8896 6.43982L56.8594 4.82761L59.4071 4.7679L60.243 2.22021Z" fill="#E4E0D8"/>
<path fill-rule="evenodd" clip-rule="evenodd" d="M54.6301 8.11182L55.4661 10.6595L58.0337 10.6993L55.9836 12.3314L56.72 14.899L54.6301 13.3664L52.5402 14.899L53.2767 12.3314L51.2266 10.6993L53.7941 10.6595L54.6301 8.11182Z" fill="#E4E0D8"/>
<path d="M10.573 19.0552C5.87572 19.0552 3.22852 22.5781 3.22852 27.375C3.22852 32.8883 5.99514 35.3763 10.991 35.3763C12.9416 35.3763 14.9319 35.0379 16.6039 34.3612L16.2257 31.2363C14.8722 31.8732 13.2003 32.2116 11.6478 32.2116C8.74186 32.2116 7.28888 30.7984 7.32869 27.8526H17.0417C17.1413 27.1958 17.1612 26.5589 17.1612 26.0215C17.1612 22.1801 15.131 19.0552 10.573 19.0552ZM7.3884 25.1457C7.60734 23.2549 8.78167 22.0208 10.4536 22.0208C12.1454 22.0208 13.2202 23.1952 13.1605 25.1457H7.3884Z" fill="#E4E0D8"/>
<path d="M20.543 34.9784H24.5635V27.4149C24.5635 24.6682 26.1757 22.3395 28.2258 22.3395C29.6987 22.3395 30.1565 23.3148 30.1565 24.9469V34.9784H34.1572V23.9716C34.1572 21.2249 33.0226 18.9558 29.4997 18.9558C27.0714 18.9558 25.2801 20.1302 24.3645 21.8817L24.3048 21.8419C24.5237 20.9263 24.5834 19.6127 24.5834 18.6573V11.9497H20.543V19.2743" fill="#E4E0D8"/>
<path d="M44.5683 35.2969C43.812 35.2969 43.2149 35.2571 42.558 35.1775V42.6812H38.5176V19.4137H42.2595C42.2595 20.17 42.2197 21.205 42.1003 22.0211H42.16C43.0357 20.1899 44.7077 19.0952 47.0762 19.0952C50.7982 19.0952 52.8085 21.7822 52.8085 26.3999C52.8284 31.8535 50.0021 35.2969 44.5683 35.2969ZM45.9417 22.3992C43.8319 22.3992 42.5779 24.8673 42.5779 27.5344V31.8933C43.2149 32.0924 43.8717 32.172 44.6877 32.172C46.9568 32.172 48.6287 30.719 48.6287 26.8378C48.6088 23.9119 47.7529 22.3992 45.9417 22.3992Z" fill="#E4E0D8"/>
<path d="M64.5309 35.0773C64.5309 34.1618 64.5707 33.2462 64.6902 32.4301L64.6504 32.3903C63.894 34.1618 61.9633 35.3759 59.6346 35.3759C56.7884 35.3759 55.1562 33.7637 55.1562 31.2558C55.1562 27.5139 58.8783 25.5235 64.2125 25.5235V24.6677C64.2125 23.0356 63.4163 22.1797 61.1473 22.1797C59.7341 22.1797 57.8433 22.6574 56.5097 23.4137L56.1713 20.05C57.7437 19.4728 59.7739 19.0747 61.7842 19.0747C66.8199 19.0747 68.2529 21.1248 68.2529 24.5283V31.0568C68.2529 32.3107 68.2927 33.8035 68.3524 35.0972H64.5309M64.2125 28.1309C59.9531 28.1309 59.0176 29.365 59.0176 30.6189C59.0176 31.634 59.7142 32.2908 60.8686 32.2908C62.859 32.2908 64.2125 30.4 64.2125 28.5091V28.1309Z" fill="#E4E0D8"/>
<path d="M5.21897 49.3696C4.2835 49.3696 3.74609 50.0862 3.74609 51.0614C3.74609 52.196 4.3034 52.7135 5.29859 52.7135C5.69666 52.7135 6.09474 52.6338 6.4132 52.5144L6.35349 51.9571C6.09474 52.0765 5.73647 52.1562 5.41801 52.1562C4.78109 52.1562 4.44273 51.8178 4.46263 51.0814H6.51272C6.53262 50.9619 6.53262 50.8425 6.53262 50.7629C6.53262 50.0065 6.13455 49.3696 5.21897 49.3696ZM4.48254 50.6037C4.54225 50.1658 4.8209 49.8871 5.19907 49.8871C5.59715 49.8871 5.85589 50.1658 5.83599 50.6037H4.48254Z" fill="#E4E0D8"/>
<path d="M9.40053 51.0027C9.40053 51.6396 9.04227 52.1571 8.56458 52.1571C8.1864 52.1571 8.08688 51.9183 8.08688 51.5202V49.9677C7.84804 49.908 7.6291 49.8483 7.41016 49.7886V51.7192C7.41016 52.2964 7.6291 52.7542 8.36554 52.7542C8.90294 52.7542 9.30101 52.4756 9.48015 52.0576C9.44034 52.2367 9.44034 52.5154 9.44034 52.6945H10.0972V50.3061C9.85832 50.2862 9.63938 50.2663 9.40053 50.2464V51.0027Z" fill="#E4E0D8"/>
<path d="M8.08688 49.4497H7.41016V49.7881C7.6291 49.8478 7.86794 49.9274 8.08688 49.9672V49.4497Z" fill="#E4E0D8"/>
<path d="M9.39844 49.4501V50.2064C9.63728 50.2263 9.85622 50.2661 10.0951 50.2661V49.4302H9.39844" fill="#E4E0D8"/>
<path d="M11.1914 52.6546H11.888V51.3608C11.888 50.8234 11.9876 50.4652 12.1667 50.2661C11.8482 50.3059 11.5099 50.3059 11.1914 50.3258V52.6546Z" fill="#E4E0D8"/>
<path d="M12.8434 50.0465L12.8832 49.3697C12.2861 49.31 11.9677 49.7081 11.8084 50.146H11.7885C11.8283 49.9071 11.8482 49.6086 11.8482 49.4294H11.1914V50.2853C11.5298 50.2853 11.8482 50.2654 12.1667 50.2256C12.3259 50.0664 12.5449 50.0067 12.8434 50.0465Z" fill="#E4E0D8"/>
<path d="M13.1992 51.0814C13.1992 52.216 13.7764 52.7136 14.6721 52.7136C15.6275 52.7136 16.2644 51.9771 16.2644 50.9819C16.2644 50.146 15.926 49.6683 15.4085 49.4692C14.7915 49.7081 14.1546 49.9071 13.4978 50.0265C13.3186 50.3251 13.1992 50.6834 13.1992 51.0814ZM14.7517 49.9668C15.309 49.9668 15.5678 50.3649 15.5678 51.0416C15.5678 51.7781 15.1896 52.1363 14.7517 52.1363C14.2143 52.1363 13.9357 51.7582 13.9357 51.0217C13.9158 50.2853 14.3337 49.9668 14.7517 49.9668Z" fill="#E4E0D8"/>
<path d="M13.5195 50.0461C14.1764 49.9068 14.8133 49.7077 15.4303 49.4888C15.2512 49.4291 15.0521 49.3893 14.8332 49.3893C14.2361 49.3694 13.7783 49.6281 13.5195 50.0461Z" fill="#E4E0D8"/>
<path d="M18.7735 49.3696C18.2759 49.3696 17.9176 49.6284 17.7385 50.0265H17.7186C17.7584 49.8473 17.7584 49.5886 17.7584 49.4293H17.1016V54.2261H17.7982V52.6538C17.9574 52.6936 18.0968 52.6936 18.2759 52.6936C19.3507 52.6936 19.9478 52.0168 19.9478 50.8823C19.9478 49.9269 19.5298 49.3696 18.7735 49.3696ZM18.2958 52.1562C18.0968 52.1562 17.9375 52.1363 17.7982 52.0964V51.1013C17.7982 50.544 18.0768 49.9468 18.5943 49.9468C19.0322 49.9468 19.2313 50.3051 19.2313 50.9619C19.2313 51.8178 18.8531 52.1562 18.2958 52.1562Z" fill="#E4E0D8"/>
<path d="M21.9963 49.3696C21.0608 49.3696 20.5234 50.0862 20.5234 51.0614C20.5234 52.196 21.0807 52.7135 22.0759 52.7135C22.474 52.7135 22.8721 52.6338 23.1905 52.5144L23.1308 51.9571C22.8721 52.0765 22.5138 52.1562 22.1954 52.1562C21.5584 52.1562 21.2201 51.8178 21.24 51.0814H23.2901C23.31 50.9619 23.31 50.8425 23.31 50.7629C23.31 50.0065 22.9119 49.3696 21.9963 49.3696ZM21.2599 50.6037C21.3196 50.1658 21.5982 49.8871 21.9764 49.8871C22.3745 49.8871 22.6332 50.1658 22.6133 50.6037H21.2599Z" fill="#E4E0D8"/>
<path d="M25.8779 52.6541C25.8779 52.4551 25.8779 52.2361 25.9177 52.057C25.7585 52.4352 25.3604 52.7138 24.8429 52.7138C24.2856 52.7138 23.9473 52.3954 23.9473 51.8978C23.9473 51.1613 24.6837 50.7235 25.8381 50.7235V50.5244C25.8381 50.1263 25.6789 49.9074 25.1614 49.9074C24.8628 49.9074 24.4847 50.0069 24.206 50.1662L24.1463 49.569C24.4648 49.4496 24.8628 49.3501 25.2808 49.3501C26.2561 49.3501 26.5348 49.7681 26.5348 50.4448V51.7585C26.5348 52.0371 26.5348 52.3755 26.5547 52.6342H25.8779M25.8381 51.2012C24.823 51.2012 24.6041 51.4997 24.6041 51.7784C24.6041 52.0172 24.7633 52.1764 25.042 52.1764C25.5197 52.1764 25.8381 51.7186 25.8381 51.2609V51.2012Z" fill="#E4E0D8"/>
<path d="M29.6392 52.6538V50.5838C29.6392 50.1857 29.5198 49.9468 29.1615 49.9468C28.6838 49.9468 28.3255 50.4643 28.3255 51.1013V52.6538H27.6289V49.4293H28.2857C28.2857 49.5886 28.2658 49.8672 28.2459 50.0663C28.4251 49.6483 28.8231 49.3696 29.3605 49.3696C30.097 49.3696 30.3159 49.8274 30.3159 50.4046V52.6538H29.6392Z" fill="#E4E0D8"/>
<path d="M6.01614 59.7001V57.6301C6.01614 57.232 5.89672 56.9932 5.53845 56.9932C5.06076 56.9932 4.70249 57.5107 4.70249 58.1476V59.7001H4.00586V54.9829H4.70249V56.4359C4.70249 56.6349 4.68259 56.9136 4.64278 57.0927H4.66268C4.84182 56.6946 5.23989 56.4359 5.75739 56.4359C6.49383 56.4359 6.71277 56.8937 6.71277 57.4709V59.72H6.01614" fill="#E4E0D8"/>
<path d="M10.294 58.1478H8.24388C8.22398 58.8842 8.56234 59.2226 9.19926 59.2226C9.53763 59.2226 9.87599 59.1429 10.1347 59.0235L10.1945 59.5808C9.87599 59.7202 9.47791 59.7799 9.07984 59.7799C8.08465 59.7799 7.52734 59.2624 7.52734 58.1279C7.52734 57.1526 8.06475 56.436 9.00022 56.436C9.9158 56.436 10.3139 57.073 10.3139 57.8293C10.3139 57.9089 10.3139 58.0283 10.294 58.1478ZM8.98032 56.9336C8.58224 56.9336 8.3235 57.2123 8.26379 57.6502H9.63715C9.63715 57.2123 9.3784 56.9336 8.98032 56.9336Z" fill="#E4E0D8"/>
<path d="M12.9033 59.701C12.9033 59.502 12.9033 59.283 12.9431 59.1039C12.7839 59.4821 12.3858 59.7607 11.8683 59.7607C11.311 59.7607 10.9727 59.4423 10.9727 58.9447C10.9727 58.2082 11.7091 57.7703 12.8635 57.7703V57.5713C12.8635 57.1732 12.7043 56.9543 12.1868 56.9543C11.8882 56.9543 11.5101 57.0538 11.2314 57.213L11.1717 56.6159C11.4902 56.4965 11.8882 56.397 12.3062 56.397C13.2815 56.397 13.5601 56.815 13.5601 57.4917V58.8053C13.5601 59.084 13.5601 59.4223 13.58 59.6811H12.9033M12.8436 58.248C11.8285 58.248 11.6096 58.5466 11.6096 58.8252C11.6096 59.0641 11.7688 59.2233 12.0475 59.2233C12.5252 59.2233 12.8436 58.7655 12.8436 58.3077V58.248Z" fill="#E4E0D8"/>
<path d="M15.5889 59.7597C14.9121 59.7597 14.6932 59.501 14.6932 58.7844V57.0329H14.0762V56.4955H14.6932V55.4804L15.3699 55.3013V56.5154H16.2258V57.0528H15.3898V58.5854C15.3898 59.0631 15.4893 59.2024 15.8078 59.2024C15.9471 59.2024 16.1064 59.1825 16.2258 59.1427V59.7199C16.0466 59.7398 15.8078 59.7597 15.5889 59.7597Z" fill="#E4E0D8"/>
<path d="M19.5708 59.76C19.3917 59.76 19.2523 59.76 19.0931 59.7202V61.2926H18.3965V56.4957H19.0533C19.0533 56.655 19.0533 56.9137 19.0135 57.0929H19.0334C19.2125 56.6948 19.5907 56.436 20.0684 56.436C20.8247 56.436 21.2427 56.9734 21.2427 57.9487C21.2427 59.0832 20.6456 59.76 19.5708 59.76ZM19.8694 56.9933C19.3519 56.9933 19.0732 57.6104 19.0732 58.1478V59.1429C19.2125 59.1828 19.3917 59.2027 19.5708 59.2027C20.1281 59.2027 20.4864 58.8643 20.4864 58.0084C20.5063 57.3516 20.3072 56.9933 19.8694 56.9933Z" fill="#E4E0D8"/>
<path d="M24.1083 59.6995C24.1083 59.5403 24.1282 59.2616 24.1481 59.0626C23.969 59.4806 23.5709 59.7592 23.0335 59.7592C22.2971 59.7592 22.0781 59.3014 22.0781 58.7242V56.4751H22.7549V58.5451C22.7549 58.9432 22.8743 59.182 23.2325 59.182C23.7102 59.182 24.0685 58.6645 24.0685 58.0276V56.4751H24.7651V59.6995H24.1083Z" fill="#E4E0D8"/>
<path d="M29.8202 59.6997V57.6496C29.8202 57.2515 29.7207 56.9927 29.3624 56.9927C28.9445 56.9927 28.5265 57.4505 28.5265 58.1671V59.6997H27.8498V57.6496C27.8498 57.2913 27.7701 56.9927 27.392 56.9927C26.9541 56.9927 26.5759 57.4903 26.5759 58.1671V59.6997H25.8594V56.4752H26.5162C26.5162 56.6345 26.4963 56.9131 26.4764 57.1122H26.4963C26.6754 56.6942 27.0934 56.4155 27.591 56.4155C28.2279 56.4155 28.427 56.8136 28.4867 57.1122C28.626 56.7937 28.9843 56.4155 29.5615 56.4155C30.1785 56.4155 30.5169 56.7539 30.5169 57.4704V59.6997H29.8202Z" fill="#E4E0D8"/>
<path d="M32.7661 59.76C32.587 59.76 32.4477 59.76 32.2884 59.7202V61.2926H31.5918V56.4957H32.2486C32.2486 56.655 32.2486 56.9137 32.2088 57.0929H32.2287C32.4079 56.6948 32.786 56.436 33.2637 56.436C34.0201 56.436 34.4579 56.9734 34.4579 57.9487C34.438 59.0832 33.8409 59.76 32.7661 59.76ZM33.0846 56.9933C32.5671 56.9933 32.2884 57.6104 32.2884 58.1478V59.1429C32.4278 59.1828 32.6069 59.2027 32.786 59.2027C33.3433 59.2027 33.7215 58.8643 33.7215 58.0084C33.7016 57.3516 33.5026 56.9933 33.0846 56.9933Z" fill="#E4E0D8"/>
<path d="M38.4775 59.701C38.4775 59.502 38.4775 59.283 38.5173 59.1039C38.3581 59.4821 37.96 59.7607 37.4425 59.7607C36.8852 59.7607 36.5469 59.4423 36.5469 58.9447C36.5469 58.2082 37.2833 57.7703 38.4377 57.7703V57.5713C38.4377 57.1732 38.2785 56.9543 37.761 56.9543C37.4624 56.9543 37.0843 57.0538 36.8056 57.213L36.7459 56.6159C37.0644 56.4965 37.4624 56.397 37.8804 56.397C38.8557 56.397 39.1344 56.815 39.1344 57.4917V58.8053C39.1344 59.084 39.1344 59.4223 39.1543 59.6811H38.4775M38.4377 58.248C37.4226 58.248 37.2037 58.5466 37.2037 58.8252C37.2037 59.0641 37.3629 59.2233 37.6416 59.2233C38.1193 59.2233 38.4377 58.7655 38.4377 58.3077V58.248Z" fill="#E4E0D8"/>
<path d="M40.7482 59.7799C40.5093 59.7799 40.2705 59.76 40.0714 59.7202L40.0913 59.123C40.2904 59.1828 40.5491 59.2226 40.788 59.2226C41.1661 59.2226 41.4249 59.0633 41.4249 58.8046C41.4249 58.1478 40.0117 58.5458 40.0117 57.4312C40.0117 56.8739 40.4695 56.436 41.3453 56.436C41.5244 56.436 41.7433 56.4559 41.9424 56.4957L41.9225 57.0531C41.7234 56.9933 41.5045 56.9535 41.2856 56.9535C40.9074 56.9535 40.7084 57.1128 40.7084 57.3516C40.7084 57.9686 42.1414 57.6502 42.1414 58.725C42.1613 59.342 41.6239 59.7799 40.7482 59.7799Z" fill="#E4E0D8"/>
<path d="M43.5528 59.7799C43.314 59.7799 43.0752 59.76 42.8761 59.7202L42.896 59.123C43.0951 59.1828 43.3538 59.2226 43.5927 59.2226C43.9708 59.2226 44.2296 59.0633 44.2296 58.8046C44.2296 58.1478 42.8164 58.5458 42.8164 57.4312C42.8164 56.8739 43.2742 56.436 44.15 56.436C44.3291 56.436 44.548 56.4559 44.7471 56.4957L44.7272 57.0531C44.5281 56.9933 44.3092 56.9535 44.0902 56.9535C43.7121 56.9535 43.513 57.1128 43.513 57.3516C43.513 57.9686 44.9262 57.6502 44.9262 58.725C44.9461 59.342 44.4087 59.7799 43.5528 59.7799Z" fill="#E4E0D8"/>
<path d="M47.0373 59.7799C46.1417 59.7799 45.5645 59.2823 45.5645 58.1478C45.5645 57.1725 46.2014 56.436 47.1767 56.436C48.0325 56.436 48.6495 56.9137 48.6495 58.0482C48.6296 59.0235 47.9927 59.7799 47.0373 59.7799ZM47.097 57.0132C46.6791 57.0132 46.2611 57.3317 46.2611 58.0681C46.2611 58.7847 46.5397 59.1828 47.0771 59.1828C47.515 59.1828 47.8932 58.8245 47.8932 58.088C47.9131 57.3914 47.6544 57.0132 47.097 57.0132Z" fill="#E4E0D8"/>
<path d="M50.6382 59.76C49.8022 59.76 49.2051 59.3619 49.2051 58.2075C49.2051 57.1924 49.7226 56.436 50.8372 56.436C51.076 56.436 51.3149 56.4758 51.5338 56.5356L51.4542 57.1327C51.2552 57.0531 51.0362 57.0132 50.8173 57.0132C50.2202 57.0132 49.9216 57.4511 49.9216 58.1279C49.9216 58.725 50.1406 59.1629 50.7775 59.1629C51.0163 59.1629 51.295 59.1031 51.4741 59.0036L51.5338 59.6007C51.3149 59.6803 50.9765 59.76 50.6382 59.76Z" fill="#E4E0D8"/>
<path d="M52.6684 56.0179C52.4295 56.0179 52.2305 55.8188 52.2305 55.58C52.2305 55.3411 52.4295 55.1421 52.6684 55.1421C52.9072 55.1421 53.1062 55.3212 53.1062 55.58C53.1062 55.8188 52.9072 56.0179 52.6684 56.0179ZM53.0266 59.7001H52.33V56.4756H53.0266V59.7001Z" fill="#E4E0D8"/>
<path d="M55.8135 59.701C55.8135 59.502 55.8135 59.283 55.8533 59.1039C55.6941 59.4821 55.296 59.7607 54.7785 59.7607C54.2212 59.7607 53.8828 59.4423 53.8828 58.9447C53.8828 58.2082 54.6193 57.7703 55.7737 57.7703V57.5713C55.7737 57.1732 55.6144 56.9543 55.0969 56.9543C54.7984 56.9543 54.4202 57.0538 54.1416 57.213L54.0819 56.6159C54.4003 56.4965 54.7984 56.397 55.2164 56.397C56.1917 56.397 56.4703 56.815 56.4703 57.4917V58.8053C56.4703 59.084 56.4703 59.4223 56.4902 59.6811H55.8135M55.7737 58.248C54.7586 58.248 54.5396 58.5466 54.5396 58.8252C54.5396 59.0641 54.6989 59.2233 54.9775 59.2233C55.4552 59.2233 55.7737 58.7655 55.7737 58.3077V58.248Z" fill="#E4E0D8"/>
<path d="M58.5205 59.7597C57.8438 59.7597 57.6248 59.501 57.6248 58.7844V57.0329H57.0078V56.4955H57.6248V55.4804L58.3016 55.3013V56.5154H59.1574V57.0528H58.3215V58.5854C58.3215 59.0631 58.421 59.2024 58.7394 59.2024C58.8788 59.2024 59.038 59.1825 59.1574 59.1427V59.7199C58.9783 59.7398 58.7195 59.7597 58.5205 59.7597Z" fill="#E4E0D8"/>
<path d="M60.3305 56.0179C60.0916 56.0179 59.8926 55.8188 59.8926 55.58C59.8926 55.3411 60.0916 55.1421 60.3305 55.1421C60.5693 55.1421 60.7683 55.3212 60.7683 55.58C60.7683 55.8188 60.5693 56.0179 60.3305 56.0179ZM60.6688 59.7001H59.9722V56.4756H60.6688V59.7001Z" fill="#E4E0D8"/>
<path d="M62.9807 59.7799C62.085 59.7799 61.5078 59.2823 61.5078 58.1478C61.5078 57.1725 62.1447 56.436 63.12 56.436C63.9759 56.436 64.5929 56.9137 64.5929 58.0482C64.573 59.0235 63.9361 59.7799 62.9807 59.7799ZM63.0404 57.0132C62.6224 57.0132 62.2044 57.3317 62.2044 58.0681C62.2044 58.7847 62.4831 59.1828 63.0205 59.1828C63.4584 59.1828 63.8366 58.8245 63.8366 58.088C63.8565 57.3914 63.5977 57.0132 63.0404 57.0132Z" fill="#E4E0D8"/>
<path d="M67.399 59.6997V57.6297C67.399 57.2316 67.2795 56.9927 66.9213 56.9927C66.4436 56.9927 66.0853 57.5102 66.0853 58.1472V59.6997H65.3887V56.4752H66.0455C66.0455 56.6345 66.0256 56.9131 66.0057 57.1122C66.1848 56.6942 66.5829 56.4155 67.1203 56.4155C67.8567 56.4155 68.0757 56.8733 68.0757 57.4505V59.6997H67.399Z" fill="#E4E0D8"/>
</svg>
