<svg width="160" height="40" viewBox="0 0 160 40" fill="none" xmlns="http://www.w3.org/2000/svg">
<g clip-path="url(#clip0_918_5339)">
<path d="M50.8828 9.29395H53.9809V30.2292H50.8828V9.29395ZM68.3445 15.7717C67.3118 15.1145 66.0914 14.739 64.7771 14.739C63.6505 14.739 62.7117 14.9268 61.8668 15.3962C61.1158 15.8656 60.3647 16.5227 59.8953 17.2738C59.8014 17.4615 59.7075 17.5554 59.6137 17.7432V9.29395H56.7034V30.2292H59.6137V27.5067C59.7075 27.6945 59.8014 27.7883 59.8953 27.9761C60.3647 28.7271 61.0219 29.3843 61.8668 29.8537C62.7117 30.3231 63.6505 30.5109 64.7771 30.5109C65.7159 30.5109 66.6547 30.3231 67.4996 29.9476C68.3445 29.5721 69.0956 29.0088 69.6588 28.3516C70.316 27.6006 70.7854 26.7557 71.1609 25.8169C71.5365 24.7842 71.7242 23.7515 71.7242 22.6249C71.7242 21.029 71.4426 19.7146 70.7854 18.4942C70.316 17.4615 69.3772 16.5227 68.3445 15.7717ZM68.4384 24.8781C68.2506 25.5352 67.8751 26.0985 67.4996 26.5679C67.1241 27.0373 66.5608 27.4128 66.0914 27.6006C65.5281 27.8822 64.871 27.9761 64.2138 27.9761C62.8995 27.9761 61.7729 27.5067 60.928 26.5679C60.0831 25.6291 59.6137 24.3148 59.6137 22.7188C59.6137 21.9678 59.7076 21.2167 59.9892 20.4657C60.177 19.9024 60.5525 19.3391 60.928 18.7758C61.3035 18.3064 61.8668 17.9309 62.3362 17.7432C62.8995 17.5554 63.5566 17.3676 64.1199 17.3676C65.4342 17.3676 66.5608 17.837 67.4057 18.7758C68.2507 19.7146 68.72 21.029 68.72 22.6249C68.8139 23.4699 68.6262 24.2209 68.4384 24.8781ZM84.0225 15.7717C82.896 15.1145 81.6755 14.739 80.3612 14.8329C79.3285 14.8329 78.3897 15.0206 77.4509 15.3962C76.606 15.7717 75.7611 16.335 75.1039 16.9921C74.4467 17.7432 73.8835 18.5881 73.6018 19.5269C73.2263 20.5596 73.0385 21.6861 73.0385 22.8127C73.0385 24.4087 73.3202 25.8169 73.9773 26.9434C74.5406 28.07 75.4794 29.1027 76.606 29.7598C77.7325 30.417 79.1407 30.7925 80.4551 30.7925C81.3 30.7925 82.1449 30.6986 82.9898 30.417C83.8348 30.1354 84.5858 29.7598 85.243 29.1965C85.994 28.5394 86.5573 27.7883 87.0267 27.0373L84.7736 25.6291C84.4919 26.1924 84.1164 26.7557 83.647 27.1312C83.1776 27.5067 82.7082 27.7883 82.1449 27.9761C81.5816 28.1639 81.0184 28.2577 80.3612 28.2577C79.5163 28.2577 78.7652 28.07 78.0142 27.6945C77.357 27.2251 76.7937 26.6618 76.4182 25.9107C76.2305 24.9719 76.0427 24.127 76.0427 23.376H87.4022V22.6249C87.4022 21.029 87.1206 19.7146 86.4634 18.4942C85.9001 17.3676 85.0552 16.4288 84.0225 15.7717ZM77.1693 18.682C77.5448 18.2126 78.0142 17.837 78.5775 17.6493C79.1407 17.3676 79.7979 17.2738 80.3612 17.2738C81.4878 17.2738 82.6143 17.7432 83.2715 18.5881C83.8348 19.2452 84.2103 20.0902 84.3042 21.2167H76.1366C76.1366 20.9351 76.2305 20.6535 76.3243 20.3718C76.5121 19.7146 76.7937 19.1514 77.1693 18.682ZM97.2596 14.739H96.4147C95.5698 14.739 94.7249 14.9268 93.9738 15.3962C93.2228 15.8656 92.6595 16.5227 92.284 17.4615V14.9268H89.3737V30.1353H92.284V22.1555C92.284 20.8412 92.6595 19.8085 93.3167 19.0575C93.9738 18.3064 94.8187 17.837 95.8514 17.9309H97.3535V14.739H97.2596ZM109.276 17.837C109.182 17.6493 109.089 17.5554 108.995 17.3676C108.525 16.6166 107.774 15.9594 107.023 15.49C106.272 15.0206 105.239 14.739 104.113 14.8329C103.174 14.8329 102.235 15.0206 101.296 15.3962C100.452 15.7717 99.7005 16.335 99.0434 16.9921C98.3862 17.7432 97.9168 18.5881 97.5413 19.5269C97.1657 20.5596 96.978 21.6861 96.978 22.7188C96.978 24.3148 97.2596 25.6291 97.9168 26.8495C98.4801 27.9761 99.325 28.9149 100.452 29.6659C101.484 30.3231 102.799 30.6986 104.019 30.6986C105.146 30.6986 106.084 30.5109 106.929 30.0415C107.68 29.5721 108.431 28.9149 108.901 28.1639C108.995 27.9761 109.089 27.8822 109.182 27.6945V30.417H112.093V9.29395H109.182V17.837H109.276ZM108.15 26.5679C107.774 27.0373 107.211 27.4128 106.648 27.6006C106.084 27.8822 105.427 27.9761 104.77 27.9761C103.456 27.9761 102.329 27.5067 101.484 26.5679C100.639 25.6291 100.17 24.3148 100.17 22.7188C100.17 21.9678 100.264 21.2167 100.545 20.4657C100.733 19.9024 101.109 19.3391 101.484 18.7758C101.86 18.3064 102.423 17.9309 102.892 17.7432C103.456 17.4615 104.113 17.3676 104.77 17.3676C106.084 17.3676 107.211 17.837 108.056 18.7758C108.901 19.7146 109.37 21.029 109.37 22.6249C109.37 23.376 109.276 24.127 108.995 24.7842C108.807 25.5352 108.525 26.0985 108.15 26.5679ZM122.983 14.739H122.044C121.199 14.739 120.354 14.9268 119.603 15.3962C118.852 15.8656 118.289 16.5227 117.913 17.4615V14.9268H115.003V30.1353H117.913V22.1555C117.913 20.8412 118.289 19.8085 118.946 19.0575C119.603 18.3064 120.448 17.837 121.481 17.9309H122.983V14.739ZM134.624 15.7717C133.403 15.1145 131.995 14.739 130.681 14.739C129.648 14.739 128.616 14.9268 127.583 15.3023C126.644 15.6778 125.799 16.2411 125.142 16.8982C124.391 17.6493 123.922 18.4942 123.546 19.433C123.171 20.4657 122.983 21.4984 122.983 22.6249C122.983 24.2209 123.358 25.5352 124.015 26.7557C124.673 27.8822 125.611 28.9149 126.738 29.5721C127.958 30.2292 129.273 30.6047 130.681 30.6047C131.714 30.6047 132.746 30.417 133.779 30.0415C134.718 29.6659 135.563 29.1027 136.22 28.4455C136.971 27.6945 137.44 26.8495 137.816 25.9107C138.191 24.8781 138.379 23.7515 138.379 22.7188C138.379 21.1229 138.004 19.7146 137.346 18.5881C136.783 17.3676 135.751 16.4288 134.624 15.7717ZM134.999 24.8781C134.812 25.5352 134.436 26.0985 133.967 26.5679C133.591 27.0373 133.028 27.4128 132.465 27.6006C131.901 27.8822 131.244 27.9761 130.587 27.9761C129.742 27.9761 128.897 27.7883 128.24 27.3189C127.489 26.8495 126.926 26.2863 126.55 25.5352C126.175 24.7842 125.893 23.8454 125.893 22.7188C125.893 21.9678 125.987 21.2167 126.269 20.4657C126.456 19.9024 126.832 19.3391 127.207 18.7758C127.583 18.3064 128.146 17.9309 128.709 17.7432C129.273 17.5554 129.93 17.3676 130.587 17.3676C131.432 17.3676 132.277 17.5554 133.028 18.0248C133.779 18.4942 134.342 19.0575 134.718 19.8085C135.093 20.5596 135.375 21.4984 135.375 22.6249C135.375 23.4699 135.281 24.2209 134.999 24.8781ZM143.355 27.2251C143.073 26.9434 142.979 26.474 142.979 25.9107V9.29395H140.069V26.0985C140.069 26.8495 140.163 27.6006 140.538 28.2577C140.82 28.9149 141.289 29.3843 141.947 29.7598C142.604 30.1353 143.449 30.3231 144.2 30.3231H145.89V27.7883H144.669C144.106 27.6945 143.636 27.6006 143.355 27.2251ZM159.408 18.1187C159.033 17.3676 158.563 16.7105 157.906 16.2411C157.249 15.7717 156.498 15.3962 155.747 15.2084C154.902 15.0206 154.057 14.8329 153.212 14.8329C151.898 14.8329 150.677 15.1145 149.457 15.7717C148.33 16.4288 147.486 17.3676 147.016 18.5881L149.363 19.9024C149.645 19.1514 150.114 18.5881 150.771 18.1187C151.429 17.7432 152.18 17.4615 153.118 17.4615C153.776 17.4615 154.433 17.5554 155.09 17.837C155.653 18.0248 156.216 18.4942 156.498 18.9636C156.874 19.5269 157.061 20.184 157.061 21.1229V22.8127C156.967 22.7188 156.874 22.6249 156.686 22.5311C155.747 21.6861 154.433 21.3106 152.649 21.3106C151.616 21.3106 150.49 21.4984 149.551 21.8739C148.706 22.1555 147.955 22.7188 147.298 23.4699C146.265 24.9719 146.171 27.0373 147.298 28.5394C147.861 29.2904 148.612 29.8537 149.457 30.1353C150.396 30.5109 151.428 30.6986 152.461 30.6986C154.245 30.6986 155.653 30.2292 156.592 29.3843L157.155 28.821V30.3231H159.972V20.8412C160.065 19.9024 159.878 18.9636 159.408 18.1187ZM156.123 27.6945C155.371 28.07 154.527 28.3516 153.4 28.3516C152.273 28.3516 151.428 28.1639 150.677 27.6945C149.926 27.3189 149.551 26.6618 149.551 25.9107C149.551 25.1597 149.926 24.4087 150.677 24.0331C151.428 23.6576 152.273 23.376 153.4 23.376C154.433 23.376 155.371 23.5637 156.123 24.0331C156.78 24.4087 157.249 25.1597 157.155 25.9107C157.155 26.6618 156.78 27.3189 156.123 27.6945Z" fill="#00A443"/>
<path d="M23.1875 22.8129C23.1875 25.2538 24.1263 27.5069 25.8161 29.2906C29.102 32.5764 33.5143 32.5764 36.3307 30.9805C39.8043 29.1029 47.5963 23.47 39.5226 0C39.6165 11.0779 23.1875 12.2044 23.1875 22.8129Z" fill="#FF9C1A"/>
<path d="M30.6983 9.76341C30.135 6.85312 29.2901 3.94284 27.9758 0.09375C27.9758 11.1716 11.6406 12.2982 11.6406 22.9066C11.6406 25.3475 12.5794 27.6006 14.2693 29.3844C17.5551 32.6702 22.0613 32.6702 24.7839 31.0742C18.3061 24.0332 20.5592 16.0534 30.6983 9.76341Z" fill="#0DA9FF"/>
<path d="M19.0577 9.76341C18.4944 6.85312 17.6495 3.94284 16.3352 0.09375C16.3352 11.0777 0 12.2043 0 22.8128C0 28.2578 4.41237 30.6048 4.41237 30.6048C3.75521 33.5151 3.56745 36.5193 4.03685 39.5234L6.10221 39.1479C5.06953 35.5805 5.72669 31.6375 5.72669 31.262C8.44922 32.2947 11.1717 32.013 13.1432 30.8865C6.66549 24.0332 9.0125 16.0534 19.0577 9.76341Z" fill="#00A443"/>
</g>
<defs>
<clipPath id="clip0_918_5339">
<rect width="160" height="39.5236" fill="white"/>
</clipPath>
</defs>
</svg>
