<svg width="84" height="50" viewBox="0 0 84 50" fill="none" xmlns="http://www.w3.org/2000/svg">
<g clip-path="url(#clip0_1232_788)">
<path d="M2.87891 33.3774H4.62151V38.5366H2.87891V33.3774Z" fill="#E4E0D8"/>
<path d="M5.79688 33.3784H7.5177L8.98439 35.9944H9.01344L8.94083 33.3784H10.5818V38.5376H8.81739L7.39427 36.0746H7.36522L7.43783 38.5376H5.79688V33.3784Z" fill="#E4E0D8"/>
<path d="M13.445 38.6826C13.2368 38.6826 13.0311 38.6631 12.8278 38.6243C12.6294 38.5902 12.4357 38.5392 12.2469 38.4713C12.0631 38.3984 11.8888 38.3157 11.7242 38.2235C11.5595 38.1262 11.4119 38.0195 11.2812 37.9029L12.3341 36.7515C12.4551 36.8827 12.6149 36.9993 12.8133 37.1013C13.0166 37.2033 13.2248 37.2543 13.4377 37.2543C13.5345 37.2543 13.6216 37.2372 13.6991 37.2033C13.7813 37.1693 13.8226 37.1061 13.8226 37.0139C13.8226 36.9652 13.808 36.9239 13.779 36.89C13.7548 36.8559 13.7087 36.8219 13.641 36.788C13.5733 36.749 13.4789 36.7078 13.3579 36.6641C13.2417 36.6204 13.0941 36.5694 12.9149 36.5111C12.7407 36.4528 12.5737 36.3846 12.4139 36.307C12.2542 36.2243 12.1113 36.1249 11.9856 36.0083C11.8645 35.8917 11.7677 35.7532 11.6951 35.5929C11.6225 35.4277 11.5862 35.2309 11.5862 35.0027C11.5862 34.682 11.6516 34.4099 11.7822 34.1865C11.9129 33.963 12.0799 33.7808 12.2832 33.64C12.4915 33.4943 12.7238 33.3897 12.9803 33.3267C13.2368 33.2635 13.4909 33.2319 13.7427 33.2319C14.0816 33.2319 14.4252 33.2975 14.7737 33.4287C15.1271 33.5598 15.4368 33.7493 15.7031 33.9971L14.6285 35.0974C14.5123 34.9517 14.3695 34.8424 14.2001 34.7695C14.0308 34.6917 13.8783 34.6529 13.7427 34.6529C13.6169 34.6529 13.5152 34.6722 13.4377 34.7112C13.3602 34.7451 13.3216 34.8034 13.3216 34.8861C13.3216 34.9637 13.3602 35.022 13.4377 35.061C13.52 35.0998 13.6507 35.1484 13.8298 35.2067C14.0137 35.265 14.2074 35.333 14.4107 35.4107C14.614 35.4883 14.8004 35.5904 14.9698 35.7168C15.144 35.8381 15.2869 35.9888 15.3982 36.1686C15.5094 36.3482 15.5652 36.5717 15.5652 36.839C15.5652 37.1498 15.5022 37.4219 15.3764 37.6551C15.2553 37.8834 15.0932 38.0752 14.8899 38.2308C14.6915 38.3813 14.4664 38.4931 14.2146 38.566C13.9629 38.6436 13.7064 38.6826 13.445 38.6826Z" fill="#E4E0D8"/>
<path d="M18.9348 38.5366H17.2068V34.8421H15.9434V33.3774H20.1982V34.8421H18.9348V38.5366Z" fill="#E4E0D8"/>
<path d="M20.9434 33.3784H22.686V38.5376H20.9434V33.3784Z" fill="#E4E0D8"/>
<path d="M26.427 38.5366H24.6989V34.8421H23.4355V33.3774H27.6904V34.8421H26.427V38.5366Z" fill="#E4E0D8"/>
<path d="M30.7448 38.6833C30.3431 38.6833 29.9923 38.6274 29.692 38.5157C29.3969 38.4039 29.1498 38.2509 28.9514 38.0567C28.753 37.8623 28.6052 37.634 28.5085 37.3717C28.4117 37.1044 28.3633 36.8179 28.3633 36.5118V33.3784H30.0914V36.3224C30.0914 36.5701 30.1495 36.7643 30.2656 36.9053C30.3867 37.0412 30.5561 37.1094 30.7739 37.1094C30.9917 37.1094 31.1587 37.0412 31.2749 36.9053C31.396 36.7643 31.4564 36.5701 31.4564 36.3224V33.3784H33.1772V36.5118C33.1772 36.8179 33.124 37.1044 33.0175 37.3717C32.9158 37.634 32.7634 37.8623 32.5601 38.0567C32.3568 38.2509 32.1026 38.4039 31.7977 38.5157C31.4976 38.6274 31.1467 38.6833 30.7448 38.6833Z" fill="#E4E0D8"/>
<path d="M36.8469 38.5366H35.1189V34.8421H33.8555V33.3774H38.1103V34.8421H36.8469V38.5366Z" fill="#E4E0D8"/>
<path d="M39.9883 33.3774H41.9415L42.791 36.5691H42.82L43.6332 33.3774H45.5864L43.7276 38.5366H41.8108L39.9883 33.3774Z" fill="#E4E0D8"/>
<path d="M47.3793 33.3784H49.2163L51.2203 38.5376H49.3397L49.0711 37.7798H47.4374L47.1833 38.5376H45.3535L47.3793 33.3784ZM48.2724 35.1783L47.8512 36.4535H48.6862L48.2724 35.1783Z" fill="#E4E0D8"/>
<path d="M51.8027 33.3774H53.5453V37.0501H55.2516V38.5366H51.8027V33.3774Z" fill="#E4E0D8"/>
<path d="M56.0059 33.3784H59.5419V34.8212H57.6323V35.2657H59.4257V36.6138H57.6323V37.0948H59.6653V38.5376H56.0059V33.3784Z" fill="#E4E0D8"/>
<path d="M60.5977 33.3784H62.3185L63.7852 35.9944H63.8142L63.7416 33.3784H65.3826V38.5376H63.6182L62.195 36.0746H62.166L62.2386 38.5376H60.5977V33.3784Z" fill="#E4E0D8"/>
<path d="M66.3281 35.9573C66.3281 35.5443 66.4007 35.1703 66.546 34.8351C66.6912 34.4999 66.8896 34.2131 67.1413 33.9752C67.3931 33.7371 67.6883 33.5549 68.0272 33.4287C68.3708 33.2975 68.7364 33.2319 69.1236 33.2319C69.5206 33.2319 69.8956 33.2975 70.249 33.4287C70.6024 33.5549 70.8976 33.7274 71.1348 33.9461L70.0747 35.2286C69.9778 35.1021 69.8569 35.0074 69.7117 34.9444C69.5665 34.8762 69.4044 34.8424 69.2252 34.8424C69.08 34.8424 68.9444 34.869 68.8186 34.9225C68.6928 34.971 68.5814 35.0438 68.4846 35.1411C68.3926 35.2382 68.32 35.3572 68.2668 35.4982C68.2136 35.6341 68.1869 35.7871 68.1869 35.9573C68.1869 36.1272 68.2136 36.2803 68.2668 36.4163C68.3249 36.5475 68.3998 36.6616 68.4919 36.7588C68.5886 36.8559 68.7001 36.9312 68.8259 36.9847C68.9517 37.0332 69.0849 37.0576 69.2252 37.0576C69.4236 37.0576 69.5932 37.0162 69.7335 36.9337C69.8787 36.851 69.9925 36.7539 70.0747 36.6422L71.1348 37.9175C70.9025 38.1506 70.6169 38.3376 70.278 38.4786C69.9391 38.6145 69.5543 38.6826 69.1236 38.6826C68.7364 38.6826 68.3708 38.617 68.0272 38.4859C67.6883 38.3547 67.3931 38.17 67.1413 37.932C66.8896 37.689 66.6912 37.4025 66.546 37.0722C66.4007 36.737 66.3281 36.3653 66.3281 35.9573Z" fill="#E4E0D8"/>
<path d="M71.832 33.3784H73.5746V38.5376H71.832V33.3784Z" fill="#E4E0D8"/>
<path d="M76.182 33.3778H78.019L80.023 38.537H78.1425L77.8738 37.7791H76.2401L75.986 38.537H74.1562L76.182 33.3778ZM77.0751 35.1777L76.654 36.4529H77.489L77.0751 35.1777ZM75.5576 31.9204H77.0969L77.9029 32.9697H76.6758L75.5576 31.9204Z" fill="#E4E0D8"/>
<path d="M2.87891 46.9175V41.7583H4.79578C5.20238 41.7583 5.58975 41.7995 5.95751 41.8822C6.33036 41.9598 6.6571 42.0982 6.93773 42.2975C7.22344 42.4917 7.45089 42.7517 7.62025 43.0772C7.78979 43.4026 7.87438 43.8132 7.87438 44.3087C7.87438 44.7605 7.79215 45.1515 7.62751 45.482C7.46777 45.8122 7.25249 46.0842 6.9813 46.2981C6.71028 46.5069 6.39807 46.6624 6.04464 46.7645C5.6914 46.8665 5.32346 46.9175 4.94099 46.9175H2.87891ZM4.54164 43.2303V45.4309H4.86112C5.26773 45.4309 5.57995 45.3435 5.79777 45.1686C6.0156 44.9888 6.12451 44.6973 6.12451 44.2942C6.12451 43.959 6.0156 43.699 5.79777 43.5145C5.57995 43.325 5.28951 43.2303 4.92647 43.2303H4.54164Z" fill="#E4E0D8"/>
<path d="M8.81836 41.7573H12.3544V43.2001H10.4448V43.6447H12.2382V44.9927H10.4448V45.4737H12.4778V46.9165H8.81836V41.7573Z" fill="#E4E0D8"/>
<path d="M17.1371 43.7549H18.7054V45.1686H17.1444V46.9175H15.4453V41.7583H18.916V43.2084H17.1371V43.7549Z" fill="#E4E0D8"/>
<path d="M19.8809 41.7573H21.6235V46.9165H19.8809V41.7573Z" fill="#E4E0D8"/>
<path d="M22.8008 41.7583H24.5216L25.9883 44.3743H26.0173L25.9447 41.7583H27.5857V46.9175H25.8213L24.3982 44.4545H24.3691L24.4417 46.9175H22.8008V41.7583Z" fill="#E4E0D8"/>
<path d="M30.1918 41.7573H32.0288L34.0328 46.9165H32.1522L31.8836 46.1587H30.2499L29.9958 46.9165H28.166L30.1918 41.7573ZM31.0849 43.5572L30.6638 44.8324H31.4988L31.0849 43.5572Z" fill="#E4E0D8"/>
<path d="M34.6152 41.7583H36.3361L37.8028 44.3743H37.8318L37.7592 41.7583H39.4001V46.9175H37.6358L36.2126 44.4545H36.1836L36.2562 46.9175H34.6152V41.7583Z" fill="#E4E0D8"/>
<path d="M40.3438 44.3372C40.3438 43.9242 40.4164 43.5502 40.5616 43.215C40.7068 42.8798 40.9054 42.593 41.157 42.3551C41.4087 42.117 41.7041 41.9348 42.0428 41.8086C42.3866 41.6774 42.752 41.6118 43.1392 41.6118C43.5362 41.6118 43.9114 41.6774 44.2646 41.8086C44.618 41.9348 44.9134 42.1073 45.1504 42.3259L44.0904 43.6085C43.9936 43.482 43.8725 43.3873 43.7273 43.3243C43.5821 43.2561 43.42 43.2222 43.2408 43.2222C43.0956 43.2222 42.9602 43.2488 42.8342 43.3024C42.7084 43.3509 42.5972 43.4237 42.5002 43.521C42.4084 43.6181 42.3358 43.7371 42.2824 43.8781C42.2292 44.014 42.2025 44.167 42.2025 44.3372C42.2025 44.5071 42.2292 44.6601 42.2824 44.7962C42.3405 44.9274 42.4156 45.0414 42.5075 45.1387C42.6044 45.2358 42.7157 45.3111 42.8415 45.3646C42.9675 45.4131 43.1005 45.4375 43.2408 45.4375C43.4394 45.4375 43.6088 45.3961 43.7491 45.3136C43.8943 45.2309 44.0081 45.1338 44.0904 45.0221L45.1504 46.2973C44.9181 46.5305 44.6326 46.7174 44.2937 46.8584C43.9549 46.9944 43.5701 47.0625 43.1392 47.0625C42.752 47.0625 42.3866 46.9969 42.0428 46.8657C41.7041 46.7346 41.4087 46.5498 41.157 46.3119C40.9054 46.0689 40.7068 45.7823 40.5616 45.4521C40.4164 45.1169 40.3438 44.7452 40.3438 44.3372Z" fill="#E4E0D8"/>
<path d="M45.8516 41.7573H49.3876V43.2001H47.478V43.6447H49.2714V44.9927H47.478V45.4737H49.511V46.9165H45.8516V41.7573Z" fill="#E4E0D8"/>
<path d="M52.1266 47.0625C51.9186 47.0625 51.7128 47.043 51.5095 47.0042C51.311 46.9701 51.1174 46.9191 50.9286 46.8512C50.7447 46.7783 50.5704 46.6956 50.4058 46.6034C50.2413 46.5061 50.0936 46.3994 49.9629 46.2828L51.0157 45.1314C51.1368 45.2626 51.2965 45.3792 51.4949 45.4812C51.6982 45.5832 51.9064 45.6342 52.1194 45.6342C52.2163 45.6342 52.3034 45.6171 52.3808 45.5832C52.4632 45.5492 52.5044 45.4859 52.5044 45.3938C52.5044 45.3451 52.4897 45.3038 52.4606 45.2699C52.4365 45.2358 52.3906 45.2018 52.3228 45.1679C52.255 45.1289 52.1606 45.0877 52.0395 45.044C51.9233 45.0003 51.7757 44.9493 51.5966 44.891C51.4223 44.8327 51.2553 44.7645 51.0956 44.6869C50.9358 44.6042 50.7932 44.5048 50.6672 44.3882C50.5463 44.2716 50.4494 44.1331 50.3768 43.9728C50.3042 43.8076 50.2678 43.6108 50.2678 43.3826C50.2678 43.0619 50.3332 42.7898 50.4639 42.5664C50.5946 42.3429 50.7616 42.1607 50.9649 42.0199C51.1731 41.8742 51.4054 41.7696 51.6619 41.7066C51.9186 41.6433 52.1727 41.6118 52.4243 41.6118C52.7632 41.6118 53.1068 41.6774 53.4554 41.8086C53.8088 41.9397 54.1186 42.1292 54.3848 42.377L53.3101 43.4773C53.194 43.3315 53.0513 43.2222 52.8818 43.1494C52.7124 43.0716 52.5599 43.0328 52.4243 43.0328C52.2985 43.0328 52.1969 43.0521 52.1194 43.0911C52.042 43.125 52.0032 43.1833 52.0032 43.266C52.0032 43.3436 52.042 43.4019 52.1194 43.4409C52.2018 43.4797 52.3325 43.5283 52.5114 43.5866C52.6955 43.6449 52.889 43.7128 53.0923 43.7906C53.2956 43.8682 53.482 43.9703 53.6514 44.0967C53.8257 44.218 53.9685 44.3687 54.0798 44.5485C54.1913 44.7281 54.2468 44.9516 54.2468 45.2189C54.2468 45.5297 54.184 45.8018 54.058 46.035C53.9371 46.2633 53.7748 46.4551 53.5715 46.6107C53.3731 46.7612 53.148 46.873 52.8963 46.9459C52.6447 47.0235 52.388 47.0625 52.1266 47.0625Z" fill="#E4E0D8"/>
<path d="M62.3204 7.0469L64.2532 5.71629L63.1031 4.22538L64.9241 3.68031L64.2212 1.59623L62.3683 2.15733V0.361816H59.9882V2.1413L58.1671 1.53211L57.4004 3.61618L59.2693 4.20934L58.0873 5.63614L60.0041 6.96674L61.1383 5.52392L62.3204 7.0469Z" fill="#E4E0D8"/>
<path d="M21.9727 13.0963C21.9727 10.9924 22.2905 8.88833 22.9264 6.78434C23.5621 4.66309 24.5245 2.71432 25.8133 0.937988L29.757 2.38664C27.4715 5.55989 26.3288 9.12978 26.3288 13.0963C26.3288 17.0628 27.4715 20.6327 29.757 23.806L25.8133 25.2547C24.5245 23.4783 23.5621 21.5381 22.9264 19.4342C22.2905 17.3129 21.9727 15.2003 21.9727 13.0963Z" fill="#E4E0D8"/>
<path d="M12.6446 1.70068H9.17773L12.4126 10.8582H15.8151L19.1144 1.70068H15.6475L14.2041 7.36595H14.1525L12.6446 1.70068Z" fill="#E4E0D8"/>
<path d="M7.39274 6.35596H2.80859V19.9282H7.39274V6.35596Z" fill="#E4E0D8"/>
<path d="M54.5982 19.4342C55.2341 17.3129 55.552 15.2003 55.552 13.0963C55.552 10.9924 55.2341 8.88833 54.5982 6.78434C53.9625 4.66309 53.0001 2.71432 51.7113 0.937988L47.7676 2.38664C50.0531 5.55989 51.1958 9.12978 51.1958 13.0963C51.1958 17.0628 50.0531 20.6327 47.7676 23.806L51.7113 25.2547C53.0001 23.4783 53.9625 21.5381 54.5982 19.4342Z" fill="#E4E0D8"/>
<path d="M38.5872 11.6175H42.7094V15.3331H38.6062V19.9298H34.1406V6.36963H43.2628V10.1811H38.5872V11.6175Z" fill="#E4E0D8"/>
</g>
<defs>
<clipPath id="clip0_1232_788">
<rect width="83.3" height="49.3" fill="white" transform="translate(0 0.350098)"/>
</clipPath>
</defs>
</svg>
