<svg width="1230" height="357" viewBox="0 0 1230 357" fill="none" xmlns="http://www.w3.org/2000/svg">
<g clip-path="url(#clip0_1204_9766)">
<path d="M617.672 304.637L495.13 75.2617H434.248V352.886H477.131V123.129L599.673 352.886H660.556V75.2617H617.672V304.637Z" fill="#1F291E"/>
<path d="M757.82 146.875H717.998V352.894H757.82V146.875Z" fill="#1F291E"/>
<path d="M757.82 75.2617H717.998V119.297H757.82V75.2617Z" fill="#1F291E"/>
<path d="M950.43 177.125C936.894 154.407 915.453 143.044 886.098 143.044C861.331 143.044 840.341 152.81 823.105 172.336C805.87 191.862 797.256 217.843 797.256 250.266C797.256 282.689 805.87 309.045 823.105 328.571C840.341 348.104 861.331 357.863 886.098 357.863C915.453 357.863 936.894 346.507 950.43 323.781V352.886H990.252V75.2617H950.43V177.118V177.125ZM935.874 305.595C925.15 318.235 911.614 324.552 895.281 324.552C878.948 324.552 865.281 317.916 855.07 304.637C844.859 291.366 839.751 273.235 839.751 250.259C839.751 227.283 844.852 209.222 855.07 196.075C865.281 182.928 878.677 176.355 895.281 176.355C911.885 176.355 925.15 182.616 935.874 195.117C946.598 207.626 951.957 226.006 951.957 250.259C951.957 274.512 946.598 292.955 935.874 305.588V305.595Z" fill="#1F291E"/>
<path d="M1215.22 189.953C1205.13 173.238 1192.68 161.23 1177.88 153.955C1163.07 146.681 1147.11 143.043 1130.01 143.043C1112.91 143.043 1097.01 146.681 1082.34 153.955C1067.66 161.23 1055.27 173.231 1045.2 189.953C1035.11 206.674 1030.07 226.908 1030.07 250.648C1030.07 274.387 1035.11 294.239 1045.2 310.961C1055.27 327.682 1067.66 339.684 1082.34 346.958C1097.01 354.233 1112.91 357.87 1130.01 357.87C1157.07 357.87 1180.56 348.68 1200.47 330.299C1220.39 311.919 1230.34 285.375 1230.34 250.648C1230.34 226.908 1225.29 206.674 1215.22 189.953ZM1171.37 305.213C1160.14 317.853 1146.35 324.17 1130.02 324.17C1113.69 324.17 1099.96 317.916 1088.86 305.408C1077.75 292.899 1072.2 274.651 1072.2 250.648C1072.2 226.645 1077.75 207.702 1088.86 195.312C1099.96 182.935 1113.68 176.737 1130.02 176.737C1146.36 176.737 1160.14 182.998 1171.37 195.499C1182.61 208.007 1188.22 226.388 1188.22 250.641C1188.22 274.894 1182.61 292.573 1171.37 305.206V305.213Z" fill="#1F291E"/>
<path d="M0 352.886H41.6479V212.276L236.164 352.886H307.257L0 130.785V352.886Z" fill="#1F291E"/>
<path d="M117.945 26.0824L265.781 132.951V202.336L70.0773 60.8653L34.6211 86.6245L307.428 283.827V111.78L153.401 0.323242L117.945 26.0824Z" fill="#1F291E"/>
</g>
<defs>
<clipPath id="clip0_1204_9766">
<rect width="1230.35" height="357.547" fill="white" transform="translate(0 0.323242)"/>
</clipPath>
</defs>
</svg>
