<svg width="154" height="40" viewBox="0 0 154 40" fill="none" xmlns="http://www.w3.org/2000/svg">
<g clip-path="url(#clip0_1220_5269)">
<path d="M48.7852 24.0163H52.0553C52.1863 25.2109 52.5676 26.0518 53.1991 26.539C53.8306 27.0263 54.8335 27.2696 56.2078 27.2689C58.6926 27.2689 59.9352 26.4725 59.9358 24.8799C59.9358 24.1944 59.6742 23.6633 59.1508 23.2864C58.6274 22.9095 57.6899 22.5997 56.3386 22.3572L54.6052 22.026C51.0297 21.362 49.2424 19.6584 49.243 16.9157C49.243 15.3888 49.8205 14.1776 50.9754 13.2821C52.1303 12.3867 53.7219 11.9386 55.7499 11.938C60.3932 11.938 62.7694 13.8506 62.8788 17.6757H59.707C59.6408 16.525 59.292 15.712 58.6605 15.2367C58.0289 14.7614 57.0588 14.5237 55.7499 14.5237C54.7038 14.5237 53.897 14.7228 53.3298 15.1211C52.7625 15.5192 52.4791 16.0836 52.4798 16.8141C52.4798 17.4782 52.7307 17.9924 53.2324 18.3567C53.7342 18.7211 54.5298 19.0142 55.6193 19.2362L57.3804 19.5353C59.4511 19.9335 60.9444 20.5292 61.8601 21.3225C62.7759 22.1156 63.2338 23.2218 63.2338 24.6409C63.2338 26.3001 62.6124 27.5887 61.3698 28.5068C60.1271 29.4248 58.3942 29.8838 56.1707 29.8838C51.4867 29.8882 49.0249 27.9324 48.7852 24.0163Z" fill="#222321"/>
<path d="M80.8471 26.9002V29.4549C80.3157 29.5249 79.7803 29.5582 79.2445 29.5546C78.1983 29.5546 77.4191 29.3609 76.9068 28.9734C76.3946 28.5857 76.0856 27.9723 75.98 27.1325C74.846 28.946 73.0147 29.8528 70.4861 29.8528C68.6323 29.8528 67.1662 29.4051 66.0879 28.5096C65.0096 27.6141 64.4685 26.3697 64.4648 24.7763C64.4648 21.6785 66.5795 19.9087 70.8087 19.4666L73.2937 19.2013C74.1662 19.0904 74.804 18.8637 75.2069 18.5213C75.6098 18.1789 75.8112 17.6866 75.8112 17.0446C75.8112 16.1817 75.5443 15.5567 75.0104 15.17C74.4765 14.783 73.5882 14.5893 72.3455 14.5886C70.9941 14.5886 70.0239 14.8156 69.435 15.2696C68.8461 15.7236 68.5081 16.5256 68.421 17.6757H65.1842C65.4239 13.8506 67.8111 11.938 72.3455 11.938C76.7946 11.938 79.0193 13.6192 79.0193 16.9815V26.0406C79.0193 26.6162 79.3245 26.904 79.935 26.904L80.8471 26.9002ZM74.4384 26.0707C75.3536 25.2743 75.8112 24.1455 75.8112 22.6844V20.8972C75.3966 21.2515 74.6989 21.4838 73.7182 21.5943L71.3639 21.8595C70.0996 22.0144 69.1949 22.3185 68.6499 22.7719C68.1049 23.2252 67.8323 23.8614 67.8323 24.6804C67.8323 25.4956 68.0996 26.1314 68.6342 26.5879C69.1686 27.0444 69.9478 27.2715 70.9718 27.269C72.3671 27.2696 73.5227 26.8701 74.4384 26.0707Z" fill="#222321"/>
<path d="M105.63 13.5765C106.655 14.672 107.168 16.1378 107.167 17.9738V29.455H103.864V18.4047C103.864 16.0381 102.786 14.8548 100.628 14.8548C100.084 14.8425 99.5441 14.9572 99.0507 15.19C98.5573 15.4229 98.1233 15.7678 97.7821 16.198C97.0405 17.0947 96.6698 18.3833 96.6698 20.0639V29.455H93.3997V18.4047C93.3997 16.0381 92.3096 14.8548 90.1295 14.8548C88.9746 14.8548 88.0264 15.3082 87.2848 16.2149C86.5433 17.1217 86.1725 18.4047 86.1725 20.0639V29.455H82.9023V12.3359H86.0418V14.8915C87.198 12.9225 88.8235 11.938 90.9183 11.938C93.4691 11.938 95.2022 13.0109 96.1173 15.1567C97.3167 13.0109 99.0609 11.938 101.35 11.938C103.179 11.938 104.606 12.4842 105.63 13.5765Z" fill="#222321"/>
<path d="M125.782 26.9002V29.455C125.25 29.5248 124.715 29.5581 124.179 29.5546C123.133 29.5546 122.354 29.3609 121.841 28.9734C121.329 28.5858 121.018 27.9723 120.909 27.1325C119.775 28.946 117.944 29.8529 115.416 29.8529C113.562 29.8529 112.096 29.4051 111.018 28.5096C109.939 27.6141 109.4 26.3697 109.398 24.7763C109.398 21.6786 111.513 19.9088 115.742 19.4666L118.228 19.2013C119.099 19.0904 119.737 18.8637 120.14 18.5213C120.544 18.1789 120.745 17.6866 120.745 17.0446C120.745 16.1817 120.479 15.5569 119.944 15.17C119.411 14.7831 118.522 14.5893 117.279 14.5886C115.928 14.5886 114.958 14.8157 114.37 15.2697C113.781 15.7237 113.442 16.5256 113.352 17.6758H110.115C110.354 13.8506 112.741 11.938 117.275 11.938C121.724 11.938 123.95 13.6192 123.95 16.9816V26.0406C123.95 26.6162 124.254 26.9041 124.865 26.9041L125.782 26.9002ZM119.372 26.0707C120.288 25.2743 120.745 24.1455 120.745 22.6845V20.8973C120.331 21.2515 119.634 21.4839 118.653 21.5943L116.298 21.8595C115.034 22.0144 114.129 22.3186 113.584 22.772C113.039 23.2252 112.767 23.8614 112.767 24.6804C112.767 25.4956 113.034 26.1314 113.568 26.5879C114.102 27.0444 114.881 27.2715 115.906 27.269C117.301 27.2696 118.458 26.8702 119.377 26.0707H119.372Z" fill="#222321"/>
<path d="M136.876 11.9709V15.1229H136.062C134.384 15.1229 133.086 15.5434 132.169 16.3842C131.252 17.2251 130.795 18.4417 130.795 20.0338V29.3251H127.525V12.206H130.664V15.2593C131.732 13.0469 133.487 11.9408 135.929 11.9408C136.245 11.9325 136.561 11.9425 136.876 11.9709Z" fill="#222321"/>
<path d="M153.999 26.9002V29.455C153.468 29.5249 152.933 29.5582 152.397 29.5546C151.351 29.5546 150.572 29.3609 150.06 28.9734C149.546 28.5858 149.237 27.9723 149.13 27.1325C147.996 28.946 146.164 29.8529 143.636 29.8529C141.782 29.8529 140.316 29.4051 139.238 28.5096C138.16 27.6141 137.62 26.3697 137.619 24.7763C137.619 21.6786 139.733 19.9088 143.963 19.4666L146.448 19.2013C147.321 19.0904 147.959 18.8637 148.361 18.5213C148.764 18.1789 148.966 17.6866 148.966 17.0446C148.966 16.1817 148.699 15.5569 148.165 15.17C147.63 14.7831 146.742 14.5893 145.499 14.5886C144.148 14.5886 143.179 14.8157 142.589 15.2697C142 15.7237 141.661 16.5256 141.573 17.6758H138.337C138.578 13.8506 140.964 11.938 145.498 11.938C149.947 11.938 152.172 13.6192 152.172 16.9816V26.0406C152.172 26.6162 152.477 26.9041 153.087 26.9041L153.999 26.9002ZM147.591 26.0707C148.505 25.2743 148.963 24.1455 148.964 22.6845V20.8973C148.55 21.2515 147.851 21.4839 146.871 21.5943L144.517 21.8595C143.253 22.0144 142.348 22.3186 141.802 22.772C141.258 23.2252 140.984 23.8614 140.984 24.6804C140.984 25.4956 141.252 26.1314 141.787 26.5879C142.322 27.0444 143.101 27.2717 144.124 27.27C145.52 27.27 146.674 26.8702 147.591 26.0707Z" fill="#222321"/>
<path d="M19.5777 39.3935C23.0681 39.3935 25.8976 38.0711 25.8976 36.4397C25.8976 34.8083 23.0681 33.4858 19.5777 33.4858C16.0874 33.4858 13.2578 34.8083 13.2578 36.4397C13.2578 38.0711 16.0874 39.3935 19.5777 39.3935Z" fill="#FF603D"/>
<path d="M19.5777 7.09957C23.0681 7.09957 25.8976 5.77709 25.8976 4.14573C25.8976 2.51438 23.0681 1.19189 19.5777 1.19189C16.0874 1.19189 13.2578 2.51438 13.2578 4.14573C13.2578 5.77709 16.0874 7.09957 19.5777 7.09957Z" fill="#FF603D"/>
<path d="M36.5852 17.9519C37.9774 17.1362 37.6912 13.9884 35.9461 10.921C34.2009 7.85356 31.6575 6.02817 30.2653 6.84385C28.8731 7.65953 29.1591 10.8074 30.9043 13.8748C32.6496 16.9422 35.193 18.7677 36.5852 17.9519Z" fill="#FF603D"/>
<path d="M35.5184 30.4466C37.2635 27.3792 37.5496 24.2312 36.1574 23.4156C34.7652 22.5999 32.2218 24.4254 30.4766 27.4927C28.7314 30.5602 28.4454 33.708 29.8376 34.5237C31.2298 35.3394 33.7732 33.514 35.5184 30.4466Z" fill="#FF603D"/>
<path d="M9.31563 34.2063C10.7079 33.3906 10.4217 30.2428 8.67655 27.1753C6.93136 24.108 4.38799 22.2825 2.99575 23.0983C1.60353 23.914 1.88966 27.0618 3.63484 30.1293C5.38003 33.1966 7.9234 35.022 9.31563 34.2063Z" fill="#FF603D"/>
<path d="M8.2039 13.8782C9.94909 10.8108 10.2352 7.66294 8.84298 6.84727C7.45075 6.03158 4.90738 7.85697 3.16219 10.9244C1.41701 13.9918 1.13088 17.1397 2.5231 17.9554C3.91533 18.771 6.45871 16.9457 8.2039 13.8782Z" fill="#FF603D"/>
<path d="M19.5528 26.2191C22.7781 26.2191 25.3927 23.5659 25.3927 20.2928C25.3927 17.0199 22.7781 14.3667 19.5528 14.3667C16.3274 14.3667 13.7129 17.0199 13.7129 20.2928C13.7129 23.5659 16.3274 26.2191 19.5528 26.2191Z" fill="#FF603D"/>
</g>
<defs>
<clipPath id="clip0_1220_5269">
<rect width="154" height="39.3953" fill="white"/>
</clipPath>
</defs>
</svg>
