<svg width="440" height="313" viewBox="0 0 440 313" fill="none" xmlns="http://www.w3.org/2000/svg">
<g clip-path="url(#clip0_693_22086)">
<g clip-path="url(#clip1_693_22086)">
<path d="M-159.603 259.535L-94.8222 107.521L-90.8106 107.521L-3.68532 -97.7127L1.42768 -97.7127L87.3833 -302.999L90.8281 -302.999L-159.603 286.157L-159.603 259.535Z" fill="#F5F3F1"/>
<path d="M-159.601 151.89L-140.637 107.521L-135.898 107.521L-49.8051 -97.7127L-45.062 -97.7127L41.4443 -302.999L45.2871 -302.999L-159.601 178.512L-159.601 151.89Z" fill="#F5F3F1"/>
<path d="M575.487 -97.6764L586.44 -97.7126L674.209 -302.999L685.781 -302.999L424.566 312.783L401.417 312.783L488.281 107.521L496.131 107.521L522.958 42.9059L522.958 26.735" fill="#F5F3F1"/>
<path d="M639.871 -302.999L378.073 312.783L355.889 312.783L442.974 107.521L450.462 107.521L523.31 -65.1738L523.049 -81.2523L530.18 -97.6764L541.422 -97.6764L628.295 -302.999L639.871 -302.999Z" fill="#F5F3F1"/>
<path d="M594.338 -302.999L332.733 312.783L309.97 312.783L396.468 107.521L404.809 107.521L491.492 -97.3589L499.845 -97.9779L522.925 -152.46L522.925 -162.746L582.954 -302.999L594.338 -302.999Z" fill="#F5F3F1"/>
<path d="M548.422 -302.999L287.207 312.783L264.054 312.783L351.541 107.521L359.166 107.521L446.171 -97.5518L454.274 -97.7448L522.925 -261.774L522.925 -270.066L536.845 -302.999L548.422 -302.999Z" fill="#F5F3F1"/>
<path d="M502.893 -302.999L241.098 312.783L218.524 312.783L305.296 107.521L312.813 107.521L399.87 -97.9659L408.403 -97.9659L495.368 -302.999L502.893 -302.999Z" fill="#F5F3F1"/>
<path d="M456.975 -302.999L195.18 312.783L172.992 312.783L259.378 107.521L268.249 107.521L354.386 -97.9659L362.819 -97.9659L449.257 -302.999L456.975 -302.999Z" fill="#F5F3F1"/>
<path d="M411.447 -302.999L149.267 312.783L138.655 312.783L138.764 312.783L149.239 287.03L149.239 259.604L198.797 143.465L213.883 107.521L221.809 107.521L308.452 -97.7126L315.965 -97.7126L403.927 -302.999L411.447 -302.999Z" fill="#F5F3F1"/>
<path d="M365.533 -302.999L103.735 312.783L92.7414 312.783L149.237 180.06L149.237 154L167.647 107.521L175.429 107.521L263.435 -97.7126L271.309 -97.7126L357.816 -302.999L365.533 -302.999Z" fill="#F5F3F1"/>
<path d="M320.004 -302.999L58.3987 312.783L47.2121 312.783L133.662 107.521L138.289 107.521L149.238 81.9525L149.238 64.1014L217.359 -97.7126L224.819 -97.7126L312.479 -302.999L320.004 -302.999Z" fill="#F5F3F1"/>
<path d="M274.086 -302.999L12.2918 312.783L1.68 312.783L88.0697 107.521L93.0018 107.521L149.236 -27.3089L149.236 -44.9108L171.473 -97.7126L179.749 -97.7126L266.368 -302.999L274.086 -302.999Z" fill="#F5F3F1"/>
<path d="M228.555 -302.999L-33.6254 312.783L-44.623 312.783L42.1968 107.521L46.1521 107.521L133.913 -97.7127L137.816 -97.7127L149.235 -126.095L149.235 -133.857L220.837 -302.999L228.555 -302.999Z" fill="#F5F3F1"/>
<path d="M182.641 -302.999L-78.9605 312.783L-90.1512 312.783L-3.37555 107.521L0.624005 107.521L87.9061 -97.7127L92.2955 -97.7127L149.238 -233.021L149.238 -242.395L174.923 -302.999L182.641 -302.999Z" fill="#F5F3F1"/>
<path d="M-135.683 312.783L-49.193 107.521L-44.7755 107.521L42.4665 -97.7127L46.3776 -97.7127L133.053 -302.999L136.723 -302.999L-124.493 312.783L-135.683 312.783Z" fill="#F5F3F1"/>
</g>
</g>
<defs>
<clipPath id="clip0_693_22086">
<rect width="1186.11" height="313" fill="white" transform="translate(-283.842)"/>
</clipPath>
<clipPath id="clip1_693_22086">
<rect width="615.782" height="937.602" fill="white" transform="translate(778 -303) rotate(90)"/>
</clipPath>
</defs>
</svg>
