<svg width="56" height="32" viewBox="0 0 56 32" fill="none" xmlns="http://www.w3.org/2000/svg">
<path d="M53.0625 5.23633L55.1289 22.7148L55.1318 22.7363L55.1104 22.7402L27.6201 27.6104L27.6123 27.6123V27.6104L0.0214844 22.7402L0 22.7363L0.00292969 22.7148L2.06934 5.23633L2.07129 5.21582H53.0605L53.0625 5.23633ZM3.68457 7.22559L2.04785 20.9707L2.02148 21.1865L2.23535 21.2236L27.5234 25.7012L27.5635 25.709L27.6035 25.7012L52.8916 21.2236L53.1055 21.1865L53.0791 20.9707L51.4424 7.22559L51.418 7.02344H3.70898L3.68457 7.22559ZM52.5967 20.8086L27.5635 25.2412L2.52832 20.8086L4.11621 7.48242H51.0107L52.5967 20.8086ZM24.0234 19.4072C24.0341 19.4885 24.0396 19.5704 24.0381 19.6523C24.0381 19.9554 23.8996 20.0293 23.4863 20.0293H22.8711V21.5977H23.8535C25.7707 21.5977 26.0487 21.0556 26.2783 19.623L27.6562 11.2578H25.8428L25.1992 17.584H25.1738L24.4277 11.2578H22.4785L24.0234 19.4072ZM31.8271 11.0254C30.5849 11.0254 29.542 11.7857 29.542 13.0303L29.5332 13.7188H31.4111V12.959C31.4093 12.9038 31.419 12.8486 31.4385 12.7969C31.4579 12.7452 31.4867 12.6975 31.5244 12.6572C31.5622 12.6169 31.6079 12.5843 31.6582 12.5615C31.7084 12.5388 31.7633 12.5262 31.8184 12.5244C31.9367 12.5261 32.0502 12.5716 32.1377 12.6514C32.2253 12.7314 32.2806 12.841 32.293 12.959V13.292C32.2927 15.0849 29.5382 14.2907 29.5381 16.373V18.1523C29.5381 19.0937 29.8615 19.5782 30.8418 19.6426C31.9416 19.7156 34.0961 19.6146 34.123 19.6133C34.0748 19.0622 34.123 13.1699 34.123 13.1699C34.123 11.5765 33.0693 11.0254 31.8271 11.0254ZM43.9922 9.58594V11.1543H43.1582V12.5137H43.9922V17.8682C43.9922 19.1426 44.2377 19.547 45.6338 19.6182H46.8643V18.1875H46.2881C45.9966 18.1875 45.9506 17.8847 45.8887 17.623V12.5137H46.8066V11.1543H45.8887L45.8789 9.58594H43.9922ZM9.19727 19.542C9.19727 19.542 11.7914 19.5742 12.375 19.5742C13.5873 19.5742 13.9501 18.7114 13.9502 17.793V12.9707C13.9502 12.0454 13.7964 11.1611 12.584 11.1611C12.0008 11.1612 11.2939 11.5107 11.124 11.9883H11.0938V9.23242H9.19727V19.542ZM39.793 11.0869C39.2718 11.0871 38.6494 11.4751 38.5254 11.9824H38.4961V11.2568H36.5488V19.5254H38.4336V13.0957C38.4699 12.9778 38.5416 12.8732 38.6377 12.7959C38.7338 12.7188 38.8508 12.6722 38.9736 12.6621C39.0924 12.6728 39.2044 12.7219 39.293 12.8018C39.3816 12.8817 39.442 12.9884 39.4648 13.1055V19.5342H41.3594V12.9648C41.3593 12.0052 41.0351 11.0869 39.793 11.0869ZM19.6924 11.1543C19.384 11.1412 19.0776 11.2094 18.8037 11.3516C18.5298 11.4938 18.2976 11.7051 18.1309 11.9648H18.0986V11.2559H16.2207V19.5244H18.0986V13.0947C18.1115 12.9766 18.1679 12.867 18.2559 12.7871C18.3437 12.7074 18.4576 12.6628 18.5762 12.6611C18.8355 12.6611 18.955 12.8927 19.0078 13.0947V14.8105H20.9023V12.6035C20.9023 11.7057 20.6591 11.1543 19.6924 11.1543ZM11.5713 12.6631C11.6878 12.6734 11.7978 12.7216 11.8848 12.7998C11.9717 12.878 12.0312 12.982 12.0537 13.0967V18.0449C12.0316 18.1599 11.9728 18.2654 11.8857 18.3438C11.7987 18.422 11.6879 18.4696 11.5713 18.4795C11.4524 18.4784 11.338 18.4335 11.25 18.3535C11.1619 18.2735 11.1062 18.1633 11.0938 18.0449V13.0967C11.1062 12.9784 11.162 12.869 11.25 12.7891C11.338 12.7091 11.4524 12.6642 11.5713 12.6631ZM32.2148 17.9072C32.2198 17.9628 32.2128 18.0186 32.1943 18.0713C32.1758 18.124 32.1462 18.1726 32.1074 18.2129C32.0687 18.2531 32.0216 18.2842 31.9697 18.3047C31.9179 18.3252 31.8623 18.3348 31.8066 18.332C31.7517 18.3345 31.6963 18.3247 31.6455 18.3037C31.595 18.2828 31.5497 18.2511 31.5127 18.2109C31.4755 18.1705 31.4473 18.1218 31.4307 18.0693C31.4141 18.017 31.4089 17.9617 31.416 17.9072V16.4238C31.416 16.0702 31.4875 16.0148 31.8066 15.7852L32.2148 15.5557V17.9072Z" fill="#222321"/>
</svg>
