<svg width="64" height="32" viewBox="0 0 64 32" fill="none" xmlns="http://www.w3.org/2000/svg">
<path d="M14.964 4.82334C19.4471 3.70437 24.0645 3.23224 28.6685 3.00378C30.4611 3.01722 32.2547 2.97153 34.0465 3.03424C34.8555 3.11667 35.6698 3.05933 36.4788 3.131C36.9205 3.19192 37.3675 3.17311 37.8119 3.20178C38.4865 3.26628 39.1593 3.33795 39.8339 3.39887C41.3811 3.62284 42.9445 3.73662 44.48 4.03943C46.2369 4.33956 47.9856 4.70149 49.7084 5.15929C51.5432 5.68339 53.3628 6.2693 55.1142 7.02902C56.6068 7.70004 58.1101 8.3836 59.4441 9.3431C60.4976 10.1467 61.5386 11.0068 62.2939 12.1087C63.0115 13.1273 63.463 14.3744 63.3573 15.6331C63.2462 17.2081 62.4946 18.6818 61.4813 19.8698C60.5245 20.9278 59.4127 21.8524 58.1755 22.5655C56.6229 23.499 54.953 24.2346 53.2248 24.7757C51.1974 25.4664 49.1109 25.9645 47.0297 26.4591C44.0177 27.1086 40.9672 27.5995 37.8943 27.8343C36.4941 27.9785 35.0857 27.9857 33.6837 28.0941C31.512 28.0869 29.3368 28.1828 27.1678 28.0197C26.6214 28.0161 26.0767 27.9731 25.5328 27.9256C24.7185 27.9319 23.9176 27.7626 23.1068 27.7178C18.4786 27.2331 13.8513 26.3731 9.5018 24.6753C7.90891 24.0644 6.37694 23.3064 4.8817 22.4894C4.18739 22.0352 3.54503 21.5057 2.90716 20.9771C1.54183 19.7766 0.27235 18.2769 0 16.417V15.1601C0.0662958 14.7982 0.116466 14.4309 0.240994 14.0832C0.823322 12.4742 1.91004 11.0793 3.23506 10.0114C5.22393 8.3406 7.65896 7.34616 10.0214 6.33112C11.6421 5.74789 13.2959 5.25605 14.964 4.82334ZM28.8539 4.25893C27.4698 4.24907 26.0955 4.42287 24.7185 4.53128C21.5891 4.82154 18.4706 5.26411 15.3985 5.94051C13.8639 6.20032 12.3964 6.73516 10.9155 7.19834C9.86374 7.5979 8.79495 7.96164 7.78976 8.4705C5.83672 9.40133 4.05032 10.7102 2.65273 12.3676C2.35529 12.7636 2.01486 13.1327 1.79267 13.5798C1.20497 14.7561 1.16645 16.185 1.63141 17.4088C1.97006 18.1793 2.5497 18.8126 3.11411 19.4245C3.93923 20.3186 4.93366 21.03 5.96394 21.6678C7.97431 22.7931 10.1459 23.5895 12.3409 24.2704C17.1984 25.6053 22.2118 26.3551 27.2395 26.5899C28.0996 26.7108 28.9695 26.6194 29.8331 26.6732C31.1169 26.6759 32.4007 26.6947 33.6837 26.6553C34.3108 26.6454 34.9406 26.683 35.5641 26.6033C35.9538 26.5594 36.3471 26.5711 36.7386 26.5621C38.3476 26.4214 39.9647 26.3345 41.5594 26.0577C43.2849 25.7943 45.0095 25.5291 46.7188 25.1726C47.423 25.0328 48.137 24.9262 48.8242 24.7103C51.4993 24.0903 54.1323 23.224 56.562 21.9321C57.6693 21.2799 58.7587 20.5856 59.7298 19.7399C60.4994 19.0241 61.1982 18.2079 61.6282 17.2395C61.8845 16.65 62.1147 16.0211 62.0842 15.368C62.1246 14.0447 61.4858 12.777 60.5899 11.8346C59.8624 11.0005 58.9397 10.3725 58.0187 9.77133C55.5828 8.24205 52.8422 7.28345 50.0919 6.49238C47.0521 5.58484 43.9147 5.05627 40.7755 4.63699C39.575 4.53486 38.3808 4.35479 37.1749 4.3288C36.5541 4.23653 35.9225 4.29387 35.3007 4.20338C33.689 4.15052 32.0764 4.18457 30.4638 4.17471C29.9254 4.16486 29.3905 4.2419 28.8539 4.25893Z" fill="#222321"/>
<path d="M25.8996 5.3035C26.7883 5.20227 27.6851 5.28469 28.5738 5.18525C30.6048 5.13329 32.6385 5.13956 34.6695 5.18525C35.3575 5.27842 36.0545 5.21212 36.7426 5.29455C37.3634 5.36443 37.9914 5.29275 38.6087 5.39757C39.9633 5.44147 41.3044 5.65917 42.6527 5.78728C45.9863 6.23613 49.2994 6.89819 52.5022 7.93742C53.8603 8.39253 55.1979 8.90767 56.513 9.47656C57.7019 10.049 58.8558 10.7227 59.8529 11.5935C60.7399 12.3443 61.4691 13.3477 61.6976 14.5052C61.831 15.3993 61.6707 16.3247 61.2631 17.131C60.5437 18.6236 59.2706 19.765 57.9187 20.6806C56.402 21.7888 54.6281 22.4643 52.8659 23.0744C50.8483 23.7328 48.7824 24.256 46.6851 24.5866C45.9559 24.669 45.2356 24.8097 44.5099 24.9145C41.7156 25.2514 38.9088 25.4547 36.1056 25.6751C35.2402 25.6796 34.3738 25.6644 33.5111 25.7334C32.3446 25.7826 31.1773 25.762 30.01 25.7665C29.5315 25.7692 29.0514 25.7665 28.5747 25.7262C27.8329 25.6447 27.084 25.7128 26.344 25.6178C22.9862 25.4825 19.6365 25.1027 16.336 24.4558C13.8203 24.0159 11.3665 23.284 8.95656 22.4481C6.74461 21.5908 4.56491 20.4646 2.9317 18.7051C2.0394 17.8164 1.52068 16.5362 1.62191 15.2739C1.73927 14.2355 2.35744 13.3432 2.98277 12.5396C3.29185 12.1875 3.61258 11.8453 3.94226 11.5129C5.23503 10.3814 6.71594 9.4676 8.28195 8.76433C8.55072 8.64607 8.81949 8.52602 9.08825 8.40597C12.4747 6.92327 16.1353 6.19402 19.7879 5.74428C21.8206 5.53912 23.857 5.37428 25.8996 5.3035ZM16.7436 9.98005C15.8925 10.0007 15.0746 10.2775 14.2772 10.5552C13.4575 10.8786 12.7157 11.3687 12.0053 11.8838C11.1819 12.5414 10.5091 13.3961 10.1114 14.3753C9.9725 14.7238 9.84707 15.0866 9.84707 15.4656C9.83005 15.9682 9.81124 16.486 9.96891 16.9707C10.2233 17.923 10.9884 18.7526 11.9533 19.0008C13.2488 19.4057 14.6679 19.1136 15.8531 18.5107C16.2437 18.2491 16.749 18.0601 16.9416 17.5969C16.8807 17.5064 16.8243 17.4132 16.7589 17.3272C16.1846 17.6739 15.6247 18.0565 14.9787 18.2608C14.2217 18.577 13.3061 18.646 12.5777 18.2169C11.9847 17.9078 11.6917 17.2421 11.5734 16.6141C11.4104 15.3276 11.9408 14.0743 12.6198 13.0108C12.997 12.4267 13.5274 11.9618 14.0604 11.5237C15.0298 10.7604 16.3154 10.4038 17.5356 10.6206C17.5643 10.66 17.6198 10.7407 17.6485 10.781C17.437 11.0793 17.4012 11.4869 17.6709 11.7647C18.1824 12.1884 19.0971 11.9519 19.2942 11.2961C19.477 10.9064 19.1804 10.5086 18.8669 10.2981C18.2442 9.88508 17.4577 9.87612 16.7436 9.98005ZM40.5376 10.2264C39.8334 10.4262 39.4938 11.4601 40.0672 11.9752C40.3629 11.9842 40.7033 12.0048 40.9273 11.7709C41.3215 11.4735 41.4397 10.9252 41.3017 10.4665C41.1011 10.2793 40.8189 10.0813 40.5376 10.2264ZM28.555 15.1699C28.6545 14.7148 28.8086 14.2714 28.8847 13.8091C28.9851 13.4337 28.9582 12.958 28.6312 12.6991C28.3579 12.6525 28.0686 12.6767 27.8222 12.8084C27.1539 13.1649 26.6477 13.7482 26.1988 14.3439C26.12 14.498 26.0152 14.6647 26.0698 14.8447C26.1872 14.8349 26.3108 14.808 26.3852 14.7059C26.7534 14.317 27.0634 13.8404 27.5606 13.6021C27.5642 13.6604 27.5713 13.7768 27.5749 13.8351C27.1754 15.4781 26.5939 17.0674 26.0949 18.6809C26.1505 18.7678 26.1997 18.8592 26.2678 18.938C26.6154 18.9828 26.9675 18.9748 27.316 18.9551C27.5597 18.6953 27.6126 18.3333 27.7389 18.0135C28.1635 16.7852 28.8113 15.6537 29.433 14.5186C29.6328 14.1827 29.9016 13.8834 30.2563 13.7078C30.3235 13.8987 30.3719 14.0958 30.4006 14.2955C30.5323 14.3941 30.6729 14.4783 30.8172 14.558C31.1719 14.5634 31.4792 14.3636 31.688 14.0895C31.7157 13.9847 31.7471 13.8816 31.7811 13.7795C31.8214 13.3746 31.6387 12.9831 31.3556 12.7018C31.1961 12.6749 31.0384 12.6453 30.8817 12.6104C29.6991 12.9974 29.2413 14.2552 28.555 15.1699ZM36.4532 12.9374C35.6738 13.5269 35.2841 14.4496 34.751 15.238C34.8836 14.4398 35.4104 13.5627 34.9409 12.7824C34.1087 12.5262 33.3561 13.1479 32.8616 13.7508C32.6197 14.0993 32.2022 14.3851 32.2228 14.8528C32.2981 14.842 32.4495 14.8205 32.5256 14.8107C32.9252 14.4102 33.2011 13.8619 33.7485 13.6326C33.7521 13.7562 33.7906 13.8843 33.7557 14.0071C33.3212 15.4208 32.8893 16.8363 32.4315 18.2428C32.3885 18.4561 32.2309 18.7768 32.462 18.9264C32.7935 19.0742 33.1572 19.0106 33.5003 18.9443C33.5648 18.8592 33.6508 18.7866 33.6831 18.6809C33.9169 18.061 34.1319 17.4338 34.4213 16.8372C34.6426 16.2764 34.9732 15.7702 35.2303 15.2264C35.5725 14.6942 35.8843 14.1217 36.3753 13.7087C36.6395 13.9058 36.5365 14.3126 36.8008 14.5052C37.1287 14.6638 37.5211 14.5097 37.7558 14.2561C38.0828 13.8252 37.9923 13.1712 37.6367 12.7887C37.2747 12.4536 36.7972 12.7206 36.4532 12.9374ZM44.0396 13.0897C42.8373 13.7508 41.9889 15.0069 41.8196 16.3677C41.6843 17.0065 41.7667 17.6919 42.0471 18.2814C42.4315 19.0464 43.3587 19.3797 44.174 19.3C44.8244 19.1817 45.4757 18.9748 46.0079 18.568C46.4674 18.2509 46.9235 17.8746 47.1367 17.3416C47.0336 17.3075 46.919 17.1946 46.8258 17.3165C46.3357 17.6802 45.8439 18.0637 45.2526 18.2509C44.699 18.4713 44.0208 18.3548 43.5952 17.9311C43.262 17.5629 43.2915 16.994 43.4501 16.555C44.7312 16.2575 46.153 16.1653 47.2128 15.3025C47.6778 14.8967 48.0541 14.2454 47.8301 13.6192C47.7405 13.4364 47.659 13.2447 47.5228 13.0906C47.2585 12.8326 46.8966 12.7116 46.5436 12.6346C45.6889 12.4984 44.7814 12.6301 44.0396 13.0897ZM21.4999 12.777C20.4553 13.0771 19.5603 13.7831 18.9206 14.6485C18.2774 15.5874 17.7864 16.7225 17.9226 17.8827C17.98 18.3987 18.2863 18.8816 18.7495 19.1244C19.055 19.1925 19.3659 19.197 19.6696 19.1145C20.441 18.8592 20.9767 18.2276 21.5313 17.6704C21.5393 17.9956 21.4748 18.3253 21.5339 18.6478C21.6271 18.9327 21.8995 19.1987 22.2211 19.1513C23.0023 19.1056 23.5927 18.5044 24.1186 17.9857C24.3524 17.7017 24.7081 17.3676 24.5603 16.9626C23.9466 17.2153 23.7782 18.0359 23.0847 18.147C23.0946 17.7662 23.2505 17.415 23.3589 17.0558C23.8158 15.6044 24.2655 14.1504 24.7224 12.6991C24.3184 12.6579 23.9116 12.665 23.5067 12.6605C23.4108 12.803 23.3203 12.9481 23.2317 13.0933C22.8043 12.5898 22.0813 12.6149 21.4999 12.777ZM52.6966 13.0637C51.9646 13.6541 51.6018 14.5509 51.0858 15.3133C51.2148 14.6799 51.4396 14.0653 51.4862 13.4149C51.4638 13.1829 51.3841 12.9598 51.2461 12.7707C50.9872 12.7797 50.722 12.7474 50.4703 12.8137C49.6264 13.1578 49.0906 13.9318 48.5576 14.6297C48.5683 14.6879 48.5898 14.8053 48.6006 14.8635C48.7116 14.8394 48.8496 14.8644 48.9329 14.7695C49.3415 14.4156 49.5645 13.8485 50.0994 13.6487C50.1048 13.8055 50.1012 13.9641 50.0653 14.1182C49.7061 15.7343 49.0575 17.2672 48.6677 18.8753C48.9992 19.1083 49.4239 19.0169 49.8028 19.0473C49.9551 18.9112 50.0689 18.7392 50.111 18.5367C50.4353 17.4312 50.9997 16.4197 51.5382 15.4082C51.8876 14.8026 52.1689 14.1047 52.7897 13.7204C52.8793 13.9408 52.9223 14.1791 53.0254 14.3941C53.1588 14.5124 53.3416 14.5598 53.5002 14.6405C53.9186 14.507 54.354 14.1639 54.2948 13.6747C54.3638 13.2527 54.0843 12.906 53.7698 12.6677C53.3819 12.6821 52.9949 12.8102 52.6966 13.0637ZM39.2663 13.1739C38.7234 14.7435 38.1796 16.3122 37.6394 17.8818C37.4646 18.3244 37.5157 18.8449 37.8221 19.2185C38.1912 19.231 38.5729 19.2409 38.9151 19.0796C39.5951 18.7544 40.2088 18.2697 40.6504 17.6569C40.7768 17.5028 40.7588 17.3039 40.74 17.1194C40.1425 17.4231 39.811 18.1129 39.1382 18.2814C39.1328 18.0914 39.1104 17.8961 39.1677 17.7116C39.3792 17.0307 39.5996 16.3516 39.8414 15.6806C40.1469 14.7578 40.4596 13.836 40.6934 12.8917C40.353 12.7125 39.9597 12.7788 39.5924 12.7842C39.3693 12.7591 39.3362 13.0216 39.2663 13.1739Z" fill="#222321"/>
<path d="M45.2831 13.1545C45.5609 12.9556 45.9398 13.0335 46.1844 13.2467C46.4227 13.5746 46.4218 14.0091 46.3107 14.3854C46.1638 15.0063 45.603 15.3987 45.0565 15.6513C44.5924 15.8269 44.0979 15.9192 43.6016 15.9183C43.9528 14.9059 44.2699 13.7045 45.2831 13.1545Z" fill="#222321"/>
<path d="M21.8035 13.3172C22.1198 13.1721 22.4871 13.1372 22.7989 13.3146C22.8347 13.3728 22.9064 13.4875 22.9422 13.5457C23.0363 14.0429 22.7478 14.4765 22.5821 14.9218C22.1064 16.0282 21.593 17.243 20.517 17.8926C20.1309 18.1282 19.597 17.9768 19.4375 17.5441C19.5584 15.8876 20.4284 14.266 21.8035 13.3172Z" fill="#222321"/>
</svg>
