<svg width="67" height="32" viewBox="0 0 67 32" fill="none" xmlns="http://www.w3.org/2000/svg">
<path d="M14.4642 8.58873V24.5347C12.8964 24.4543 11.2281 24.6419 9.66702 24.5347C8.10592 24.4275 5.45942 23.1411 4.48792 21.1378C2.10942 16.22 6.79942 10.9806 11.9182 12.736V8.58203H14.4642V8.58873ZM9.53972 21.9887C10.3102 22.0691 11.2013 21.9284 11.9852 21.9887C12.0053 21.9418 11.9182 21.9083 11.9182 21.8882V15.5902C11.9182 15.5701 11.7306 15.4763 11.7306 15.4763C10.0221 14.3105 7.52302 15.1011 6.69222 16.9972C5.74082 19.1747 7.16792 21.7475 9.53972 21.9887Z" fill="#222321"/>
<path d="M42.6369 14.9539C42.5699 14.9673 42.2349 15.2219 42.1679 15.2889C41.7994 15.6373 41.7324 16.0259 41.8865 16.515C42.0406 17.0041 42.4493 17.3123 42.9719 17.3726C45.337 17.6272 48.017 16.5552 49.625 18.8935C50.9181 20.7762 50.1007 23.416 47.9768 24.1865C47.8495 24.2334 47.2867 24.4075 47.1929 24.4075H39.6554V21.8616H46.9249C47.1996 21.8616 47.6485 21.3725 47.6887 21.0844C47.7959 20.401 47.5145 19.8516 46.7909 19.7779C45.0556 19.6104 43.0188 20.1396 41.3907 19.3491C38.9184 18.1497 38.6638 14.6055 40.9284 13.0578C41.25 12.8367 42.1277 12.4146 42.4962 12.4146H47.3872L47.4877 12.5151V14.8601L47.3872 14.9606H42.6302L42.6369 14.9539Z" fill="#222321"/>
<path d="M23.2084 12.4746C26.6321 12.8364 27.8247 17.4058 24.8432 19.2684C23.2285 20.2801 21.185 19.6704 19.3894 19.8446C18.572 19.9183 18.1298 20.8228 18.5921 21.5196C18.7194 21.7139 19.0946 21.9953 19.3224 21.9953H26.4579V24.5413H19.0544C18.6323 24.5413 17.5536 24.0589 17.2119 23.7775C15.4431 22.337 15.4364 19.6436 17.2119 18.2098C18.8869 16.8631 21.2319 17.7073 23.1481 17.446C25.0643 17.1847 24.401 16.0993 23.8114 15.4427C23.2218 14.7861 23.2687 15.034 23.1481 15.034H18.4246V12.5885L18.5251 12.488H23.2151L23.2084 12.4746Z" fill="#222321"/>
<path d="M53.7259 12.4075V18.873C53.7259 20.0388 54.9587 21.4994 56.0575 21.8344C58.2015 22.4843 60.5599 20.8897 60.5599 18.605V12.4075H63.1059C62.9518 14.7525 63.3806 17.4191 62.9384 19.7105C62.1143 23.9851 57.1094 25.908 53.5986 23.3553C50.1146 20.8227 51.4412 16.0992 51.1799 12.4075H53.7259Z" fill="#222321"/>
<path d="M35.7036 12.4078H38.3166V14.9538H35.8711C35.851 14.9538 35.8309 14.8935 35.8041 14.8868L35.7371 14.9538C35.6634 15.0007 35.7706 15.0275 35.7706 15.0543V24.4008H33.2246V7.4498H35.6701L35.7706 7.5503V12.3073C35.7706 12.3274 35.6835 12.3609 35.7036 12.4078Z" fill="#222321"/>
<path d="M31.214 12.4077H28.668V24.4007H31.214V12.4077Z" fill="#222321"/>
<path d="M31.214 7.44971H28.668V11.1347H31.214V7.44971Z" fill="#222321"/>
</svg>
