<svg width="96" height="32" viewBox="0 0 96 32" fill="none" xmlns="http://www.w3.org/2000/svg">
<path d="M15.3689 27.2301V21.7005C15.3689 21.4125 15.3305 21.4413 15.6377 21.4413H21.7817C21.9353 21.4413 21.9833 21.3741 21.9161 21.2301C19.2857 15.5661 16.6553 9.90208 14.0249 4.23808C14.0153 4.21888 14.0057 4.19968 13.9961 4.17088V4.11328C15.7145 4.11328 17.3657 4.46848 18.9017 5.24608C22.4153 7.03168 24.5465 9.89248 25.1801 13.7709C25.7945 17.5821 24.7673 20.9805 22.1177 23.8221C20.4185 25.6461 18.2969 26.7309 15.8297 27.1629C15.7241 27.1821 15.6089 27.1629 15.5129 27.2301H15.3689Z" fill="#222321"/>
<path d="M13.9869 4.12289V4.18049C13.8813 4.20929 13.8717 4.31489 13.8429 4.39169C13.3149 5.51489 12.7965 6.63809 12.2781 7.76129C11.2605 9.95969 10.2333 12.1581 9.20606 14.3565C8.61086 15.6333 8.01566 16.9101 7.42046 18.1869C6.94046 19.2141 6.47006 20.2509 5.98046 21.2781C5.89406 21.4701 6.00926 21.4317 6.11486 21.4317H12.3069C12.4605 21.4317 12.5373 21.5085 12.5469 21.6621V27.2301H12.4701C12.1245 27.1629 11.7885 27.0957 11.4429 27.0189C10.6461 26.8461 9.88766 26.5773 9.14846 26.2317C7.81406 25.6077 6.65246 24.7533 5.66366 23.6685C4.21406 22.0845 3.27326 20.2413 2.83166 18.1389C2.62046 17.1213 2.53406 16.0941 2.59166 15.0573C2.66846 13.6941 2.94686 12.3789 3.48446 11.1213C4.08926 9.69089 4.94366 8.42369 6.05726 7.33889C7.23806 6.18689 8.60126 5.32289 10.1565 4.76609C11.1837 4.40129 12.2493 4.18049 13.3437 4.13249C13.5645 4.13249 13.7757 4.10369 13.9965 4.11329H13.9869V4.12289Z" fill="#222321"/>
<path d="M93.4359 12.7824C92.8599 12.7824 92.2839 12.792 91.7079 12.7824C91.5255 12.7824 91.4679 12.8208 91.4679 13.0128V19.9248C91.4679 20.1072 91.4295 20.1648 91.2375 20.1552C90.6903 20.1456 90.1335 20.1456 89.5863 20.1552C89.4231 20.1552 89.3847 20.1072 89.3847 19.9536V13.0416C89.3847 12.8784 89.2983 12.792 89.1255 12.792H87.6183C87.4935 12.792 87.4551 12.7536 87.4551 12.6288V11.3424C87.4551 11.2272 87.4839 11.1792 87.6087 11.1792H93.4263V12.7728H93.4359V12.7824Z" fill="#222321"/>
<path d="M52.4843 15.7297C52.4843 16.4689 52.4075 17.1889 52.1771 17.8897C51.6875 19.3777 50.4779 20.2705 48.9035 20.2897C48.2795 20.2993 47.6555 20.2513 47.0699 20.0209C46.1387 19.6561 45.5051 18.9841 45.1883 18.0529C44.6603 16.5457 44.6411 15.0097 45.1595 13.5025C45.6587 12.0337 46.9067 11.1793 48.4715 11.1505C49.1819 11.1409 49.8731 11.2369 50.5163 11.5633C51.3803 12.0049 51.9083 12.7249 52.2059 13.6273C52.4267 14.3089 52.5035 15.0097 52.5035 15.7201H52.4843V15.7297ZM50.3051 15.8641C50.3051 15.3265 50.2859 14.9233 50.2187 14.5297C50.1419 14.0689 50.0267 13.6273 49.7483 13.2433C49.2491 12.5425 48.2123 12.4849 47.6267 13.1185C47.3483 13.4257 47.2139 13.8001 47.1179 14.1937C46.9259 15.0577 46.9259 15.9217 47.0315 16.7857C47.0987 17.3041 47.2139 17.8033 47.5403 18.2257C48.0971 18.9745 49.2107 18.9553 49.7483 18.1969C49.8923 17.9953 49.9883 17.7649 50.0651 17.5249C50.2475 16.9393 50.2859 16.3249 50.2859 15.8545H50.3051V15.8641Z" fill="#222321"/>
<path d="M72.1638 15.72C72.807 15.8064 73.0566 16.248 73.2198 16.7472C73.575 17.8416 73.911 18.936 74.2566 20.0304C74.2854 20.1264 74.2566 20.1648 74.1702 20.1648H72.231C72.1254 20.1648 72.0966 20.1072 72.0774 20.0304C71.847 19.2144 71.6166 18.408 71.3766 17.592C71.2998 17.3424 71.2134 17.1024 71.0694 16.8816C70.8774 16.5744 70.3974 16.5168 70.1478 16.5648C70.0326 16.584 70.071 16.6704 70.071 16.7376V19.992C70.071 20.1264 70.0518 20.184 69.8886 20.184H68.1222C67.9974 20.184 67.959 20.1456 67.959 20.0208V11.3712C67.959 11.2368 68.007 11.208 68.1318 11.208H71.4054C72.0966 11.208 72.7302 11.3808 73.2678 11.8608C73.527 12.0912 73.7094 12.3696 73.8054 12.7056C73.9782 13.2816 73.9782 13.8576 73.7766 14.4336C73.5366 15.096 73.047 15.48 72.3846 15.6816C72.3462 15.6912 72.2982 15.7008 72.2598 15.72C72.2406 15.72 72.231 15.7296 72.1734 15.7584V15.72H72.1638ZM69.9654 13.8576V14.856C69.9654 14.9616 69.9942 15.0096 70.1094 15H70.6182C71.4918 15.0192 72.0102 14.2992 71.7606 13.3968C71.6838 13.1184 71.4918 12.9168 71.2134 12.8016C70.8294 12.648 70.4358 12.7152 70.0422 12.7056C69.9366 12.7056 69.9654 12.792 69.9654 12.8496V13.848V13.8576Z" fill="#222321"/>
<path d="M66.7966 15.5377C66.7966 16.6513 66.6526 17.5921 66.2014 18.4657C65.587 19.6273 64.6174 20.2417 63.3022 20.3089C62.6686 20.3473 62.0542 20.2801 61.4782 20.0209C60.5854 19.6177 60.0094 18.9265 59.6638 18.0241C59.299 17.0641 59.2126 16.0657 59.2894 15.0481C59.347 14.2801 59.5006 13.5409 59.8654 12.8593C60.4798 11.7265 61.4206 11.1121 62.7166 11.0353C63.379 10.9969 64.0222 11.0641 64.627 11.3521C65.5198 11.7745 66.0862 12.4945 66.4126 13.3969C66.6814 14.1265 66.787 14.8945 66.7774 15.5377H66.7966ZM64.6558 15.5761C64.6558 15.2497 64.6366 14.8273 64.5694 14.4241C64.4926 13.9441 64.3582 13.4833 64.0702 13.0801C63.6094 12.4465 62.6782 12.3697 62.131 12.9265C61.8046 13.2529 61.6606 13.6657 61.5646 14.0977C61.363 15.0193 61.363 15.9601 61.4974 16.8913C61.5646 17.3809 61.699 17.8513 61.987 18.2545C62.3134 18.7057 62.8798 18.8977 63.3982 18.7345C63.8686 18.5905 64.1278 18.2353 64.3102 17.8129C64.5982 17.1313 64.6462 16.4017 64.6462 15.5761H64.6558Z" fill="#222321"/>
<path d="M36.3264 18.0337C36.3552 18.6001 36.384 19.1281 36.4224 19.6465C36.4224 19.7137 36.4032 19.7425 36.3456 19.7713C34.9728 20.3377 33.5808 20.5297 32.1504 20.0113C31.2096 19.6657 30.5568 18.9937 30.2016 18.0721C29.5008 16.2577 29.5872 14.4529 30.5856 12.7633C31.68 10.9105 33.7152 10.8913 34.992 11.5249C35.8176 11.9377 36.2688 12.6481 36.5472 13.4929C36.8352 14.3761 36.8832 15.2785 36.8736 16.2001C36.8736 16.3249 36.7968 16.3153 36.72 16.3153H32.0736C31.9072 16.3153 31.8272 16.3985 31.8336 16.5649C31.8432 16.8433 31.8816 17.1217 31.968 17.3905C32.1888 18.1297 32.6784 18.5521 33.4368 18.6769C34.1952 18.8017 34.9344 18.7345 35.6448 18.4465C35.8848 18.3505 36.096 18.2161 36.336 18.0337H36.3264ZM33.312 14.9617H34.6752C34.7424 14.9617 34.8288 14.9809 34.8192 14.8657C34.8096 14.3761 34.7616 13.8865 34.5696 13.4257C34.368 12.9649 34.0416 12.6673 33.5136 12.6193C32.9568 12.5713 32.5344 12.7825 32.2368 13.2529C31.9392 13.7233 31.8432 14.2609 31.8144 14.8081C31.8144 14.9329 31.8432 14.9617 31.968 14.9617H33.312Z" fill="#222321"/>
<path d="M75.2266 15.672V11.3904C75.2266 11.2176 75.2746 11.1792 75.4378 11.1792H80.161C80.3146 11.1792 80.3626 11.2176 80.353 11.3712C80.353 11.7744 80.353 12.168 80.353 12.5712C80.353 12.9744 80.3146 12.7536 80.1706 12.7536H77.425C77.281 12.7536 77.2234 12.7824 77.2234 12.936C77.2234 13.4832 77.2234 14.0208 77.2234 14.568C77.2234 15.1152 77.2618 14.7504 77.4058 14.7504H80.0074C80.1706 14.7504 80.209 14.7984 80.209 14.952C80.209 15.3552 80.209 15.7488 80.209 16.152C80.209 16.5552 80.161 16.3536 80.017 16.344H77.4346C77.2714 16.344 77.233 16.3824 77.233 16.5456V18.4176C77.233 18.5616 77.281 18.6 77.425 18.6H80.3146C80.4586 18.6 80.5162 18.6288 80.5162 18.792C80.5162 19.1952 80.5162 19.5984 80.5162 20.0112C80.5162 20.424 80.497 20.184 80.353 20.184H75.3898C75.2362 20.184 75.2362 20.1072 75.2362 19.992V15.672H75.2266Z" fill="#222321"/>
<path d="M86.459 11.621C86.4398 12.0338 86.411 12.437 86.3918 12.8498C86.3918 12.9938 86.3534 12.9938 86.2382 12.9362C85.6622 12.677 85.067 12.5138 84.4334 12.5522C83.8958 12.581 83.5502 12.869 83.4734 13.3874C83.4158 13.7714 83.579 14.069 83.8862 14.2898C84.2126 14.5394 84.5966 14.6738 84.971 14.837C85.3742 15.0194 85.7678 15.2114 86.1134 15.509C86.747 16.0562 86.9678 16.7762 86.9582 17.5826C86.9582 18.9074 86.0846 19.9442 84.7694 20.2034C83.9054 20.3762 83.051 20.2898 82.1966 20.117C82.0046 20.0786 81.8126 20.021 81.611 19.973C81.4958 19.9442 81.4574 19.8866 81.467 19.7714C81.5054 19.2818 81.5438 18.8018 81.5726 18.3122C81.5726 18.1682 81.6302 18.1874 81.7262 18.2258C82.0718 18.3698 82.4078 18.533 82.7726 18.6194C83.2142 18.7346 83.6654 18.7826 84.107 18.6194C84.4814 18.485 84.7406 18.2354 84.7982 17.8322C84.8558 17.429 84.7406 17.093 84.4046 16.8434C84.059 16.5842 83.6558 16.4306 83.2622 16.2578C82.9358 16.1042 82.5998 15.9602 82.3118 15.7394C81.7742 15.3362 81.467 14.7986 81.371 14.1458C81.275 13.4738 81.371 12.8306 81.7262 12.245C82.1678 11.5346 82.8398 11.1986 83.6462 11.0738C84.5774 10.9202 85.4894 11.0738 86.3918 11.2946C86.4686 11.3138 86.4974 11.3522 86.4878 11.4194V11.621H86.459Z" fill="#222321"/>
<path d="M43.9684 18.2546C44.0068 18.8018 44.0452 19.3298 44.0836 19.8482C44.0836 19.9058 44.0836 19.9538 44.0068 19.973C42.5284 20.4242 41.0692 20.5202 39.6772 19.6754C39.0244 19.2818 38.5828 18.6962 38.3236 17.9954C37.7668 16.5362 37.738 15.0482 38.3044 13.5794C38.8612 12.1298 39.9748 11.3714 41.4916 11.189C42.2884 11.093 43.0564 11.2082 43.8148 11.4578C43.9396 11.4962 43.978 11.5634 43.9684 11.6882C43.9204 12.1874 43.8916 12.6866 43.8532 13.1858C43.7476 13.1858 43.6804 13.1282 43.6036 13.0994C43.0948 12.8594 42.5668 12.7346 42.0004 12.8114C41.2228 12.9074 40.6564 13.301 40.378 14.0306C39.9844 15.0674 39.9556 16.1426 40.33 17.189C40.7428 18.3218 41.77 18.869 42.9604 18.6098C43.306 18.533 43.6324 18.4274 43.9684 18.245V18.2546Z" fill="#222321"/>
<path d="M53.6738 15.6526V11.4094C53.6738 11.2366 53.7026 11.1694 53.8946 11.1694H58.397C58.5698 11.1694 58.6178 11.2174 58.6082 11.3806C58.6082 11.7454 58.6082 12.1198 58.6082 12.4846C58.6082 12.8494 58.5314 12.7342 58.3682 12.7342H55.901C55.7378 12.7342 55.6802 12.7726 55.6802 12.9454C55.6802 13.4926 55.6802 14.0494 55.6802 14.5966C55.6802 15.1438 55.7282 14.8174 55.901 14.8174H58.301C58.445 14.8174 58.493 14.8558 58.4834 14.9998V16.2478C58.4834 16.3726 58.445 16.411 58.3202 16.411H55.9394C55.773 16.411 55.6898 16.4942 55.6898 16.6606V19.9246C55.6898 20.107 55.6514 20.1646 55.4594 20.155C54.9314 20.1454 54.3938 20.1454 53.8658 20.155C53.7218 20.155 53.6834 20.107 53.6834 19.9726V15.6526H53.6738Z" fill="#222321"/>
</svg>
