<svg width="85" height="32" viewBox="0 0 85 32" fill="none" xmlns="http://www.w3.org/2000/svg">
<path d="M4.3125 25.4968H80.0693C81.9541 25.4967 83.4883 23.9614 83.4883 22.0749V9.3161C83.4883 8.45709 83.1769 7.65042 82.6055 7.0202L82.4873 6.89716V6.89618C81.8406 6.24884 80.9855 5.89425 80.0693 5.89423H4.3125C3.45508 5.89433 2.65002 6.20617 2.01953 6.77899L1.89648 6.89618L1.89551 6.89716C1.24901 7.54369 0.894531 8.40003 0.894531 9.3161V22.0749L0.898438 22.2458C0.936887 23.04 1.24429 23.7815 1.77832 24.3708L1.89648 24.4948C2.5434 25.1418 3.39792 25.4967 4.3125 25.4968Z" stroke="#222321" stroke-width="1.78926"/>
<path d="M16.0498 14.5922C16.0647 14.7874 16.0647 14.9521 16.0647 15.1771C16.0647 18.898 13.2159 21.1337 10.142 21.1337C6.78452 21.1337 4.25 18.5076 4.25 15.3122C4.25 11.9967 6.91885 9.59619 10.1876 9.59619C12.841 9.59619 15.12 11.3812 15.7349 13.5265H12.5564C12.1215 12.7474 11.3118 12.0868 10.1128 12.0868C8.71793 12.0868 7.08385 13.1217 7.08385 15.3122C7.08385 17.6373 8.73334 18.6426 10.1274 18.6426C11.537 18.6426 12.4814 17.938 12.7811 16.8571H9.46792V14.5922H16.0498Z" fill="#222321"/>
<path d="M21.5296 18.8376C22.6094 18.8376 23.5241 17.9521 23.5241 16.7373C23.5241 15.5227 22.6094 14.637 21.5296 14.637C20.4501 14.637 19.5355 15.5227 19.5355 16.7373C19.5355 17.9521 20.4501 18.8376 21.5296 18.8376ZM21.5296 12.3115C24.558 12.3115 26.0128 14.6973 26.0128 16.7373C26.0128 18.7773 24.558 21.1633 21.5296 21.1633C18.5011 21.1633 17.0469 18.7773 17.0469 16.7373C17.0469 14.6973 18.5011 12.3115 21.5296 12.3115Z" fill="#222321"/>
<path d="M31.5143 18.8376C32.5933 18.8376 33.5082 17.9521 33.5082 16.7373C33.5082 15.5227 32.5933 14.637 31.5143 14.637C30.4343 14.637 29.52 15.5227 29.52 16.7373C29.52 17.9521 30.4343 18.8376 31.5143 18.8376ZM31.5143 12.3115C34.5427 12.3115 35.9976 14.6973 35.9976 16.7373C35.9976 18.7773 34.5427 21.1633 31.5143 21.1633C28.4855 21.1633 27.0312 18.7773 27.0312 16.7373C27.0312 14.6973 28.4855 12.3115 31.5143 12.3115Z" fill="#222321"/>
<path d="M41.5973 18.854C43.1561 18.854 43.7253 17.5786 43.7253 16.7084C43.7253 15.7034 43.0061 14.6224 41.6267 14.6224C40.1875 14.6224 39.5131 15.7484 39.5131 16.7084C39.5131 17.9979 40.4277 18.854 41.5973 18.854ZM46.0794 20.9094H43.71V20.0093H43.6805C43.47 20.3539 42.8711 21.1792 41.192 21.1792C38.6737 21.1792 37.0234 19.2291 37.0234 16.7237C37.0234 13.9026 39.0336 12.2981 41.1472 12.2981C42.6159 12.2981 43.3209 13.0179 43.5903 13.2879V9.80608H46.0794" fill="#222321"/>
<path d="M47.5859 12.5811H49.9088V13.4668H49.9392C50.1346 13.1211 50.674 12.2968 52.2337 12.2968C52.9685 12.2968 53.9718 12.5514 54.632 13.7816C55.1422 12.9717 55.9964 12.2968 57.2709 12.2968C57.8553 12.2968 58.7861 12.4308 59.4596 13.1364C60.2404 13.9615 60.3597 14.517 60.3597 16.3618V20.9081H57.8707V16.4824C57.8707 15.8065 57.8706 14.6366 56.5962 14.6366C55.2168 14.6366 55.2168 15.8964 55.2168 16.3618V20.9081H52.7286V16.3772C52.7286 15.9271 52.7286 14.6366 51.4833 14.6366C50.0742 14.6366 50.0742 15.9875 50.0742 16.4824V20.9081H47.5859V12.5811Z" fill="#222321"/>
<path d="M65.9867 18.8697C67.5464 18.8697 68.0717 17.5486 68.0717 16.7386C68.0717 15.7334 67.3805 14.6229 65.9722 14.6229C64.5487 14.6229 63.9182 15.8235 63.9182 16.7692C63.9182 17.5486 64.4876 18.8697 65.9867 18.8697ZM70.5608 20.9098H68.0717V20.0097H68.0416C67.6207 20.8199 66.5862 21.1951 65.6136 21.1951C62.9729 21.1951 61.4297 19.1244 61.4297 16.7386C61.4297 14.0084 63.393 12.2986 65.6136 12.2986C66.9767 12.2986 67.7413 12.9582 68.0416 13.4685H68.0717V12.5828H70.5608" fill="#222321"/>
<path d="M72.0781 12.5811H74.4016V13.4668H74.4325C74.6887 13.0618 75.2133 12.2968 76.6971 12.2968C77.492 12.2968 78.3759 12.6262 78.8263 13.0167C79.2742 13.4064 79.785 14.067 79.785 15.7022V20.9081H77.2956V16.3618C77.2956 15.7768 77.2956 14.6366 75.992 14.6366C74.5684 14.6366 74.5684 15.8669 74.5684 16.3772V20.9081H72.0781V12.5811Z" fill="#222321"/>
<path d="M78.6864 11.2185C78.6864 11.7526 79.1088 12.1958 79.6488 12.1958C80.1809 12.1958 80.6139 11.7622 80.6139 11.2185C80.6139 10.6899 80.1969 10.241 79.6488 10.241C79.1016 10.241 78.6864 10.6899 78.6864 11.2185ZM80.7777 11.2185C80.7777 11.8435 80.2675 12.3473 79.6524 12.3473C79.021 12.3473 78.5234 11.8359 78.5234 11.2185C78.5234 10.6041 79.0186 10.0901 79.6524 10.0901C80.2771 10.0901 80.7777 10.6019 80.7777 11.2185ZM79.3313 11.1795H79.6557C79.7414 11.1795 80.0038 11.1796 80.0038 10.9445C80.0038 10.7344 79.7708 10.7344 79.6858 10.7344H79.3313V11.1795ZM79.7128 10.5837C79.7925 10.5837 80.1662 10.5837 80.1662 10.9349C80.1662 11.0771 80.1022 11.2068 79.9269 11.248V11.2533C80.104 11.3037 80.1367 11.4104 80.1433 11.5755C80.1547 11.794 80.1547 11.8201 80.1827 11.8742H80.0213C79.9978 11.836 79.9894 11.7972 79.9834 11.6353C79.9834 11.4305 79.9482 11.3283 79.6524 11.3283H79.3313V11.8742H79.1701V10.5838" fill="#222321"/>
</svg>
