<svg width="92" height="32" viewBox="0 0 92 32" fill="none" xmlns="http://www.w3.org/2000/svg">
<g clip-path="url(#clip0_697_22799)">
<path fill-rule="evenodd" clip-rule="evenodd" d="M21.6332 14.9844C21.689 15.3613 21.7311 15.7373 21.7311 16.1228C21.7311 21.1557 16.841 25.2486 10.8578 25.2486C9.97733 25.2486 9.11772 25.1681 8.29688 24.9878C8.63779 24.2665 9.40047 22.6576 10.6374 19.764C12.446 15.5315 9.17824 15.3546 9.17824 15.3546L9.25106 14.9844H21.6332Z" fill="#222321"/>
<path fill-rule="evenodd" clip-rule="evenodd" d="M10.8587 6.99979C15.6891 6.99979 19.7924 9.66752 21.2005 13.3303H9.46711L4.67398 23.6262C1.85588 21.9646 0 19.2249 0 16.1227C0 11.0951 4.87493 6.99979 10.8587 6.99979ZM92.1466 10.7062H83.3141C83.3141 10.7062 77.3554 10.4348 76.6045 16.8823C75.8537 23.3308 79.0812 24.3834 82.2095 24.3834H89.1569L89.6075 22.5971H83.3812C83.3812 22.5971 80.3863 22.3362 80.8383 17.9733C80.843 17.9373 80.8478 17.9023 80.8478 17.8774H89.8643L90.3536 16.3189H81.0946C81.7414 13.2641 83.1495 12.2921 85.1742 12.2921H91.6572L92.1466 10.7062ZM77.0187 10.7062H68.1933C68.1933 10.7062 62.2284 10.4348 61.479 16.8823C60.7277 23.3308 63.9491 24.3834 67.0826 24.3834H74.0243L74.4753 22.5971H68.2519C68.2519 22.5971 65.2541 22.3362 65.7043 17.9733C65.7161 17.9427 65.7225 17.9103 65.7232 17.8774H74.7401L75.2253 16.3189H65.9672C66.614 13.2641 68.0301 12.2921 70.0539 12.2921H76.5322L77.0187 10.7062ZM46.4669 10.7062H57.0802C57.0802 10.7062 61.4227 10.5336 60.7215 14.1734C60.0075 17.8261 56.9786 17.9647 56.275 17.9647L59.7267 24.4055H56.587C56.587 24.4055 54.9321 24.9392 53.4876 22.225C52.0417 19.5055 50.3541 16.2882 50.3541 16.2882H53.4876C53.4876 16.2882 55.743 16.3534 56.3799 14.5747C57.0126 12.7836 55.7085 12.3866 54.6461 12.3866H50.5243L47.2788 24.4794H42.8394L46.4669 10.7062ZM44.1619 10.6679H33.646C33.646 10.6679 28.0183 10.5595 26.2736 17.0794C26.2736 17.0794 24.0281 23.6042 30.6378 24.3815H38.4349C38.4349 24.3815 40.8435 24.8059 41.8516 20.7662C42.8687 16.7241 42.9358 16.2676 42.9358 16.2676H35.3548L34.7643 18.1109H38.3238L37.4098 21.3335C37.4098 21.3335 37.172 22.5108 36.223 22.5707C35.282 22.6475 32.8351 22.5707 32.8351 22.5707C32.8351 22.5707 30.6378 22.6887 30.426 20.2075C30.218 17.7168 31.4771 12.5865 35.4201 12.5865H43.5226L44.1619 10.6679Z" fill="#222321"/>
</g>
<defs>
<clipPath id="clip0_697_22799">
<rect width="92" height="32" fill="white"/>
</clipPath>
</defs>
</svg>
