<svg width="71" height="32" viewBox="0 0 71 32" fill="none" xmlns="http://www.w3.org/2000/svg">
<path d="M7.84564 26.0353H0L3.95524 19.2271H11.8009L7.84564 26.0353ZM15.7561 26.0353H23.6018L19.6465 19.2271H11.8009L15.7561 26.0353ZM15.7561 12.4189L11.8009 5.61075L7.84564 12.4189L11.8009 19.2271L15.7561 12.4189Z" fill="#222321"/>
<path d="M27.1015 23.1173H30.2786V22.0151H27.1015V20.5886H30.6677V19.4215H25.8047V26.0351H30.7325V24.868H27.1015V23.1173ZM27.0366 13.4562L28.3983 18.384H29.6951L31.1216 13.4562V18.384H32.3535V11.7703H30.4732L29.0467 16.374L27.685 11.7703H25.8047V18.384H27.0366V13.4562ZM56.0201 11.7703H57.3169V18.384H56.0201V11.7703ZM57.1224 19.4215H58.4192V26.0351H57.1224V19.4215ZM69.1178 11.7703H70.4146V18.384H69.1178V11.7703ZM32.8722 11.7703H34.169V18.384H32.8722V11.7703ZM67.3023 14.3639H64.6438V11.7703H63.347V18.384H64.6438V15.4662H67.3023V18.384H68.5991V11.7703H67.3023V14.3639ZM36.1791 18.384H37.5407V12.9375H39.0969V11.7703H34.5581V12.9375H36.1791V18.384ZM48.2393 26.0351H49.601V20.5886H51.222V19.4215H46.6832V20.5886H48.2393V26.0351ZM47.3316 18.5137C49.0174 18.5137 49.99 17.7356 49.99 16.2443V11.7055H48.6932V16.374C48.6932 16.9575 48.2393 17.4114 47.3964 17.4114C46.4238 17.4114 46.0996 16.8279 46.0996 16.374V11.7703H44.8028V16.3091C44.738 17.8653 45.7754 18.5137 47.3316 18.5137ZM37.3462 23.1173H40.4585V22.0151H37.3462V20.5886H40.8476V19.4215H35.9846V26.0351H40.9772V24.868H37.3462V23.1173ZM51.8055 18.384H53.6859C54.9178 18.384 55.6959 17.6708 55.6959 16.6333C55.6959 15.7904 55.1124 15.0772 54.3991 14.8827C54.9827 14.753 55.4366 14.1694 55.4366 13.3913C55.4366 12.4187 54.7233 11.7703 53.3617 11.7703H50.379V18.384H51.8055ZM53.3617 17.3466H51.8055V15.4662H53.3617C53.9452 15.4662 54.3991 15.7904 54.3991 16.4388C54.3343 16.9575 53.8804 17.3466 53.3617 17.3466ZM53.4265 12.8078C53.8156 12.8078 54.2046 13.132 54.2046 13.5859C54.2046 13.9749 53.9452 14.4288 53.3617 14.4288H51.8055V12.8078H53.4265ZM55.5014 22.858C56.085 22.6635 56.6685 22.2096 56.6685 21.237C56.6685 20.0699 55.8904 19.4215 54.5288 19.4215H51.5462V26.0351H52.9078V23.4415H54.0101C54.7233 23.4415 55.0475 23.7657 55.1772 24.2845C55.3069 24.8032 55.242 25.5813 55.3717 26.0351H56.7334C56.6037 25.5164 56.5388 24.868 56.474 24.2845C56.474 23.3767 56.0201 23.0525 55.5014 22.858ZM52.9078 22.4041V20.5886H54.464C54.9827 20.5886 55.3717 20.9776 55.3717 21.4963C55.3717 21.8854 55.0475 22.4041 54.5288 22.4041H52.9078ZM32.4832 19.4215H31.1864V26.0351H35.5955V24.868H32.4832V19.4215ZM41.3663 15.5959C42.4686 15.7904 43.0521 15.9849 43.0521 16.6333C43.0521 17.0872 42.5982 17.4763 41.7553 17.4763C40.9124 17.4763 40.3937 16.9575 40.3937 16.374H39.0969C39.0969 17.5411 39.8101 18.5785 41.7553 18.5785C43.5708 18.5785 44.4138 17.6059 44.4138 16.5037C44.4138 15.4662 43.7654 14.8178 42.5334 14.5585C41.3663 14.2991 40.5882 14.2991 40.5882 13.521C40.5882 13.0023 41.0421 12.7429 41.7553 12.7429C42.5334 12.7429 42.9224 13.132 42.9224 13.7804H44.2192C44.2192 12.7429 43.4412 11.6407 41.6905 11.6407C40.4585 11.6407 39.2266 12.3539 39.2266 13.6507C39.2266 14.6881 40.0046 15.3365 41.3663 15.5959ZM59.9105 15.5959C60.948 15.7904 61.5964 15.9849 61.5964 16.6333C61.5964 17.0872 61.1425 17.4763 60.2996 17.4763C59.3918 17.4763 58.9379 16.9575 58.9379 16.374H57.6411C57.6411 17.5411 58.3544 18.5785 60.2996 18.5785C62.1151 18.5785 62.958 17.6059 62.958 16.5037C62.958 15.4662 62.3096 14.8178 61.0776 14.5585C59.9105 14.2991 59.1324 14.2991 59.1324 13.521C59.1324 13.0023 59.5863 12.7429 60.2996 12.7429C61.0776 12.7429 61.4667 13.132 61.4667 13.7804H62.7635C62.7635 12.7429 61.9854 11.6407 60.2347 11.6407C59.0028 11.6407 57.7708 12.3539 57.7708 13.6507C57.7708 14.6881 58.6137 15.3365 59.9105 15.5959Z" fill="#222321"/>
<path d="M43.9639 24.9983C42.8616 24.9983 42.278 23.9609 42.278 22.6641C42.278 21.4321 42.8616 20.3298 43.9639 20.3298C44.8068 20.3298 45.1958 20.8486 45.3904 21.4321H46.752C46.5575 20.1353 45.52 19.1627 43.899 19.1627C41.889 19.1627 40.8516 20.7189 40.8516 22.5992C40.8516 24.4796 41.889 26.0358 43.899 26.0358C45.4552 26.0358 46.5575 25.128 46.752 23.7015H45.3904C45.1958 24.5444 44.8068 24.9983 43.9639 24.9983ZM61.7949 24.9983C60.6926 24.9983 60.109 23.9609 60.109 22.6641C60.109 21.4321 60.6926 20.3298 61.7949 20.3298C62.6378 20.3298 63.0268 20.8486 63.2214 21.4321H64.583C64.3885 20.1353 63.351 19.1627 61.73 19.1627C59.72 19.1627 58.6826 20.7189 58.6826 22.5992C58.6826 24.4796 59.72 26.0358 61.73 26.0358C63.2862 26.0358 64.3885 25.128 64.583 23.7015H63.2214C63.0268 24.5444 62.6378 24.9983 61.7949 24.9983Z" fill="#222321"/>
</svg>
