<svg width="90" height="32" viewBox="0 0 90 32" fill="none" xmlns="http://www.w3.org/2000/svg">
<path d="M73.8378 19.2714L73.6654 9.39944H76.7784V21.842H72.3027L69.1964 11.6306H69.1296L69.3019 21.842H66.209V9.39944H70.8784L73.7683 19.2714H73.8378Z" fill="#222321"/>
<path d="M17.2518 10.5645L15.5296 21.9729H12.1348L14.4662 9.39944H20.0588L22.3795 21.9729H18.998L17.3226 10.5645H17.2518Z" fill="#222321"/>
<path d="M30.2817 21.973L28.1788 10.6688H28.1107L28.0319 21.973H24.8828L25.1607 9.39957H30.2911L31.8436 19.011H31.9104L33.4642 9.39957H38.5919L38.8645 21.973H35.7221L35.6393 10.6688H35.5738L33.4722 21.973H30.2817Z" fill="#222321"/>
<path d="M6.8385 18.4259C6.96141 18.7305 6.924 19.122 6.86655 19.3584C6.76101 19.7766 6.47777 20.2028 5.64141 20.2028C4.85314 20.2028 4.37484 19.7512 4.37484 19.0605V17.8434H1.00268L1 18.8173C1 21.6204 3.20714 22.4661 5.57193 22.4661C7.84587 22.4661 9.719 21.6885 10.0169 19.5936C10.1692 18.5074 10.0557 17.7966 10.0036 17.5281C9.47316 14.8961 4.70083 14.1105 4.34544 12.6382C4.28532 12.3856 4.30269 12.1184 4.33208 11.9755C4.41893 11.5747 4.69415 11.1324 5.48108 11.1324C6.2159 11.1324 6.65011 11.5867 6.65011 12.2734C6.65011 12.5046 6.65011 13.0497 6.65011 13.0497H9.7858V12.1665C9.7858 9.42765 7.32748 9.00012 5.54654 9.00012C3.31001 9.00012 1.48231 9.73895 1.1483 11.7858C1.05745 12.3509 1.04409 12.8546 1.17636 13.4852C1.72547 16.0544 6.19185 16.7986 6.8385 18.4259Z" fill="#222321"/>
<path d="M47.7218 18.4026C47.8461 18.7045 47.806 19.0853 47.7499 19.3218C47.647 19.7386 47.3665 20.1581 46.5354 20.1581C45.7579 20.1581 45.2836 19.7065 45.2836 19.0318L45.2809 17.8254H41.9435L41.9395 18.786C41.9395 21.561 44.1265 22.3987 46.4673 22.3987C48.7172 22.3987 50.5729 21.6318 50.8655 19.5556C51.0178 18.4774 50.9096 17.776 50.8548 17.5128C50.3271 14.9048 45.6029 14.1272 45.2515 12.6696C45.1914 12.4185 45.2087 12.1539 45.2395 12.019C45.329 11.6155 45.5989 11.184 46.3778 11.184C47.1059 11.184 47.5308 11.6275 47.5308 12.3089C47.5308 12.5374 47.5308 13.0771 47.5308 13.0771H50.6424V12.2033C50.6424 9.49386 48.2041 9.069 46.4406 9.069C44.2294 9.069 42.4164 9.79848 42.0891 11.8306C41.9982 12.3877 41.9889 12.8821 42.1185 13.51C42.6596 16.0525 47.0819 16.7913 47.7218 18.4026Z" fill="#222321"/>
<path d="M58.2906 20.0909C59.163 20.0909 59.4356 19.487 59.4957 19.1784C59.5211 19.0421 59.5278 18.8604 59.5251 18.6974V9.39322H62.7049V18.4128C62.7115 18.644 62.6888 19.1196 62.6781 19.2385C62.455 21.5859 60.5993 22.3475 58.2892 22.3475C55.9766 22.3475 54.1195 21.5859 53.899 19.2385C53.8883 19.1196 53.8656 18.644 53.8723 18.4128V9.39322H57.0494V18.6974C57.0494 18.8604 57.0547 19.0434 57.0788 19.1784C57.1469 19.487 57.4115 20.0909 58.2906 20.0909Z" fill="#222321"/>
<path d="M84.5162 19.9577C85.4274 19.9577 85.7454 19.3819 85.8042 19.0466C85.8269 18.9023 85.8336 18.7272 85.8322 18.5683V16.7432H84.5416V14.9075H89V18.2823C88.9973 18.5175 88.992 18.6912 88.9546 19.1107C88.7448 21.398 86.7608 22.2143 84.5323 22.2143C82.2998 22.2143 80.3184 21.398 80.106 19.1107C80.0699 18.6912 80.0646 18.5175 80.0605 18.2823L80.0632 12.9876C80.0632 12.7645 80.0913 12.369 80.1153 12.1593C80.3946 9.80918 82.2998 9.05298 84.5323 9.05298C86.7621 9.05298 88.7141 9.80517 88.9452 12.1593C88.9866 12.5601 88.9733 12.9876 88.9733 12.9876V13.4071H85.8028V12.703C85.8055 12.7044 85.7988 12.4038 85.7614 12.2247C85.708 11.9468 85.4662 11.3082 84.5082 11.3082C83.5917 11.3082 83.3232 11.9121 83.2564 12.2247C83.2176 12.3904 83.2029 12.6149 83.2029 12.8179V18.5683C83.2002 18.7272 83.2096 18.9023 83.235 19.0466C83.2898 19.3832 83.6064 19.9577 84.5162 19.9577Z" fill="#222321"/>
</svg>
