<svg width="80" height="32" viewBox="0 0 80 32" fill="none" xmlns="http://www.w3.org/2000/svg">
<path d="M35.0913 11.257H42.864L42.0246 13.9674H39.9175L38.1514 19.598H34.9864L36.735 13.9762H34.252L35.0913 11.257Z" fill="#222321"/>
<path d="M63.9341 11.2568L62.8937 15.2437L61.8182 11.2568H58.9243L56.7909 18.129L56.0827 11.2568H52.5942L48.6161 17.9541L47.7942 16.2404C48.3713 16.0918 49.4554 15.7159 49.8926 14.5443C50.6882 12.4109 49.3243 11.2568 47.2609 11.2568H43.3614L40.7734 19.5978H43.921L44.9702 16.3104L46.1155 19.5978H50.933L51.6325 18.1027H53.9494L54.0456 19.5978H59.4051L60.6029 15.4536L61.3811 19.5978H64.5199L67.1079 11.2568H63.9428H63.9341ZM47.2084 14.1333C47.0773 14.4743 46.7013 14.6317 46.168 14.6317H45.4947L45.8532 13.5126H46.6401C47.0947 13.5126 47.392 13.6612 47.2172 14.1246L47.2084 14.1333ZM52.5243 16.2492L53.7833 13.5738L53.8882 16.2492H52.5243Z" fill="#222321"/>
<path d="M67.7989 11.2568H73.753L73.0273 13.5738H70.0721L69.8273 14.3082H72.8612L72.1443 16.494H69.1716L68.918 17.3159H71.9782L71.27 19.5978H65.2109L67.7989 11.2568Z" fill="#222321"/>
<path d="M12.9355 19.6678C12.8481 19.6678 12.8918 19.5891 12.9355 19.5891L27.4754 19.3705C27.5891 18.9858 27.6765 18.6011 27.7552 18.2077L13.4601 18.0328C13.3727 18.0328 13.4164 17.9541 13.4601 17.9541L27.8251 17.7355C27.8776 17.3508 27.9213 16.9661 27.9388 16.5639L13.976 16.3891C13.8973 16.3891 13.9322 16.3104 13.976 16.3104L27.965 16.0918C27.965 16.0568 27.965 16.0219 27.965 15.9781C27.965 15.6284 27.9388 15.2874 27.9126 14.9464L14.4743 14.7716C14.3869 14.7716 14.4306 14.6929 14.4743 14.6929L27.8601 14.4831C27.8076 14.0809 27.7377 13.6787 27.6503 13.2852L15.0164 13.1104C14.9377 13.1104 14.9727 13.0317 15.0164 13.0317L27.5366 12.8219C27.4317 12.4372 27.3093 12.0612 27.1694 11.694L15.5148 11.5279C15.4361 11.5279 15.471 11.4492 15.5148 11.4492L26.9945 11.2393C25.1497 6.98142 20.918 4 15.9869 4C11.0557 4 5.22404 8.23169 4.20109 13.8186L21.4339 13.5475L21.2066 14.2645L4.18361 13.9672C4.10492 14.4481 4.05246 14.9464 4.02623 15.4448L20.918 15.1825L20.6907 15.8995L4.01749 15.6022C4.01749 15.7333 4 15.8645 4 15.9956C4 16.3628 4.02623 16.7301 4.05246 17.0885L20.4022 16.8262L20.1749 17.5432L4.0612 17.2459C4.11366 17.753 4.20984 18.2426 4.31475 18.7235L19.8776 18.4525L19.6503 19.1694L4.34973 18.8721C4.47213 19.3617 4.62076 19.8426 4.80437 20.306L19.3792 20.0525L19.1519 20.7694L4.86557 20.4721C5.06667 20.9792 5.31148 21.4689 5.58251 21.941L18.8809 21.6787L18.6536 22.3956L5.67869 22.1071C5.9847 22.623 6.31694 23.1126 6.6929 23.576L18.365 23.3049L18.1377 24.0219L6.82404 23.7246C9.02732 26.3388 12.3148 28 15.9956 28C21.2678 28 25.7355 24.5902 27.3443 19.8601L12.9617 19.6852L12.9355 19.6678Z" fill="#222321"/>
<path d="M74.8718 12.7955H74.6532V11.7114H75.0379C75.309 11.7114 75.4663 11.79 75.4663 12.0436C75.4663 12.2972 75.3527 12.3146 75.2128 12.3234L75.4751 12.7955H75.2128L74.9767 12.3409H74.8718V12.7955ZM75.0729 12.1573C75.1691 12.1573 75.2303 12.1398 75.2303 12.0174C75.2303 11.895 75.1166 11.895 75.0292 11.895H74.8718V12.1573H75.0641H75.0729ZM75.0379 13.2676C74.5308 13.2676 74.0762 12.9004 74.0762 12.2534C74.0762 11.6064 74.5308 11.2392 75.0379 11.2392C75.545 11.2392 75.9997 11.6064 75.9997 12.2534C75.9997 12.9004 75.545 13.2676 75.0379 13.2676ZM75.0379 11.4753C74.6532 11.4753 74.3472 11.7813 74.3472 12.2534C74.3472 12.7256 74.6532 13.0316 75.0379 13.0316C75.4051 13.0316 75.7199 12.7256 75.7199 12.2534C75.7199 11.7813 75.4051 11.4753 75.0379 11.4753Z" fill="#222321"/>
</svg>
