<svg width="96" height="32" viewBox="0 0 96 32" fill="none" xmlns="http://www.w3.org/2000/svg">
<path d="M41.1287 22.7072V20.371H39.6644C37.8547 20.371 37.1801 20.8646 37.1801 22.1808C37.1801 23.2831 37.6408 23.7766 38.6608 23.7766C39.7467 23.7602 40.3061 23.3324 41.1287 22.7072ZM41.3919 25.0763V24.3689C39.9277 25.7344 38.8089 25.8825 37.6902 25.8825C35.4856 25.8825 34.2188 24.5334 34.2188 22.2301C34.2188 19.6636 35.8804 18.4297 39.3354 18.4297H41.1287V17.7716C41.1287 16.3238 40.6187 15.8467 39.0557 15.8467C38.1673 15.8467 37.0979 15.9125 35.8804 16.2086C35.6501 16.258 35.4362 16.0934 35.4362 15.8631V14.3989C35.4362 14.1521 35.6007 13.9382 35.8475 13.8724C36.6043 13.6914 37.8547 13.4775 39.7467 13.4775C42.9713 13.4775 44.0901 14.5798 44.0901 17.6235V25.0599C44.0901 25.3067 43.8926 25.5041 43.6459 25.5041H41.8361C41.5893 25.5206 41.3919 25.3231 41.3919 25.0763Z" fill="#222321"/>
<path d="M69.4334 22.7093V20.3731H67.9691C66.1594 20.3731 65.4848 20.8667 65.4848 22.1829C65.4848 23.2852 65.9455 23.7787 66.9655 23.7787C68.0678 23.7623 68.6272 23.3345 69.4334 22.7093ZM69.6966 25.0784V24.371C68.2488 25.7365 67.1136 25.8846 65.9949 25.8846C63.7903 25.8846 62.5234 24.5355 62.5234 22.2322C62.5234 19.6657 64.1851 18.4318 67.6236 18.4318H69.4334V17.7737C69.4334 16.3259 68.8904 15.8488 67.2781 15.8488C66.3568 15.8488 65.1558 15.9475 63.9219 16.2436C63.6915 16.293 63.4777 16.1284 63.4777 15.8981V14.4339C63.4777 14.1871 63.6422 13.9732 63.889 13.9239C64.6787 13.7429 66.0113 13.4961 67.9527 13.4961C71.2431 13.4961 72.3948 14.5984 72.3948 17.642V25.0784C72.3948 25.3252 72.1973 25.5227 71.9506 25.5227H70.1408C69.9105 25.5227 69.6966 25.3252 69.6966 25.0784Z" fill="#222321"/>
<path d="M91.6747 25.8686C88.812 25.8686 87.5781 24.8156 87.5781 21.7555V11.4071C87.5781 11.1603 87.7756 10.9629 88.0223 10.9629H90.0953C90.3421 10.9629 90.5395 11.1603 90.5395 11.4071V13.842H93.8629C94.1097 13.842 94.3071 14.0395 94.3071 14.2862V15.8327C94.3071 16.0795 94.1097 16.277 93.8629 16.277H90.5395V21.7226C90.5395 22.9072 91.0495 23.4501 92.1683 23.4501C93.0238 23.4501 93.5667 23.4008 94.0603 23.3514C94.2906 23.3349 94.4881 23.4995 94.4881 23.7298V25.1611C94.4881 25.4244 94.3071 25.6383 94.0438 25.6876C93.1554 25.8357 92.6619 25.8686 91.6747 25.8686Z" fill="#222321"/>
<path d="M77.5888 14.2858V14.9768C78.724 14.039 79.9579 13.4961 81.4551 13.4961C83.8242 13.4961 85.0745 14.549 85.091 17.1156L85.1239 25.0949C85.1239 25.3417 84.9265 25.5391 84.6797 25.5391H82.5738C82.327 25.5391 82.1296 25.3417 82.1296 25.0949V18.0205C82.1296 16.5398 81.636 16.0626 80.4021 16.0626C79.4972 16.0626 78.7569 16.3588 77.852 17.0333V25.0949C77.852 25.3417 77.6546 25.5391 77.4078 25.5391H75.3348C75.088 25.5391 74.8906 25.3417 74.8906 25.0949V14.2858C74.8906 14.039 75.088 13.8416 75.3348 13.8416H77.1446C77.3914 13.8416 77.5888 14.039 77.5888 14.2858Z" fill="#222321"/>
<path d="M57.6719 25.0783V9.56384C57.6719 9.31706 57.8693 9.11963 58.1161 9.11963H60.1891C60.4358 9.11963 60.6333 9.31706 60.6333 9.56384V25.0618C60.6333 25.3086 60.4358 25.506 60.1891 25.506H58.1161C57.8693 25.5225 57.6719 25.3251 57.6719 25.0783Z" fill="#222321"/>
<path d="M52.0938 25.0783V9.56384C52.0938 9.31706 52.2912 9.11963 52.538 9.11963H54.6274C54.8742 9.11963 55.0716 9.31706 55.0716 9.56384V25.0618C55.0716 25.3086 54.8742 25.506 54.6274 25.506H52.5544C52.2912 25.5225 52.0938 25.3251 52.0938 25.0783Z" fill="#222321"/>
<path d="M46.5781 25.0767V14.2841C46.5781 14.0373 46.7755 13.8398 47.0223 13.8398H49.0953C49.3421 13.8398 49.5395 14.0373 49.5395 14.2841V25.0767C49.5395 25.3235 49.3421 25.5209 49.0953 25.5209H47.0223C46.7755 25.5209 46.5781 25.3235 46.5781 25.0767Z" fill="#222321"/>
<path d="M46.5312 11.4887V9.56384C46.5312 9.31706 46.7287 9.11963 46.9755 9.11963H49.1636C49.4104 9.11963 49.6078 9.31706 49.6078 9.56384V11.4887C49.6078 11.7355 49.4104 11.933 49.1636 11.933H46.9755C46.7287 11.9494 46.5312 11.752 46.5312 11.4887Z" fill="#222321"/>
<path d="M35.0475 9.6132L30.3258 25.1276C30.2599 25.358 30.0461 25.506 29.8157 25.506H26.9531C26.7227 25.506 26.5088 25.358 26.443 25.1276L21.7377 9.6132C21.6554 9.36641 21.8529 9.11963 22.0997 9.11963H24.4852C24.732 9.11963 24.9459 9.28415 24.9952 9.51448L28.4173 22.5117L31.8394 9.51448C31.9052 9.28415 32.119 9.11963 32.3494 9.11963H34.6527C34.9488 9.11963 35.1298 9.38286 35.0475 9.6132Z" fill="#222321"/>
<path d="M7.67601 6.88105C8.59733 6.35458 9.61737 6.04199 10.7197 6.04199C11.822 6.04199 12.8256 6.35458 13.7469 6.88105C13.5165 7.27591 13.2698 7.72012 13.0065 8.23014C12.2662 7.80238 11.4929 7.5885 10.7197 7.5885C9.92996 7.5885 9.17316 7.80238 8.43281 8.23014C8.15313 7.72012 7.90634 7.27591 7.67601 6.88105ZM16.4944 9.38179C16.2641 10.0399 16.0337 10.5828 15.7869 11.0764C17.1031 13.1658 17.8764 15.8146 17.8764 18.2166C17.8764 20.5528 17.1196 22.8397 15.7869 24.452C14.8163 25.6366 13.1546 27.0515 10.7197 27.0515C8.28474 27.0515 6.62307 25.6366 5.65239 24.452C4.31976 22.8232 3.56296 20.5528 3.56296 18.2166C3.56296 15.8146 4.35267 13.1658 5.66884 11.0764C5.40561 10.5828 5.19173 10.0234 4.9614 9.38179C3.08585 11.8332 2 15.2388 2 18.2166C2 21.2438 3.08585 23.7939 4.45138 25.4391C5.98143 27.2982 8.10377 28.598 10.7197 28.598C13.3356 28.598 15.4744 27.2982 16.988 25.4391C18.337 23.7939 19.4393 21.2438 19.4393 18.2166C19.4229 15.2388 18.337 11.8332 16.4944 9.38179Z" fill="#222321"/>
<path d="M16.3223 4C16.3716 4 16.4048 4.00016 16.4541 4.0166C16.6022 4.03306 16.8326 4.13229 16.9971 4.39551C17.474 5.16894 17.1616 7.25824 16.7832 8.47559C16.4542 9.54492 16.1412 10.3513 15.7793 11.0752C17.0954 13.1645 17.8689 15.813 17.8525 18.2148C17.8525 20.5511 17.0953 22.8214 15.7627 24.4502C14.8085 25.6348 13.1302 27.0498 10.6953 27.0498C8.26065 27.0496 6.59953 25.6347 5.62891 24.4502C4.29628 22.8379 3.53906 20.5675 3.53906 18.2148C3.53912 15.8129 4.3128 13.1645 5.62891 11.0752C5.26698 10.3513 4.95402 9.56134 4.625 8.47559C4.24662 7.25819 3.93413 5.18531 4.41113 4.39551C4.57565 4.13227 4.80603 4.04951 4.9541 4.0166C5.00334 4.00022 5.03665 4 5.08594 4C5.7604 4.00026 6.55057 4.70838 8.42578 8.22852C9.16592 7.80095 9.93889 7.58697 10.7119 7.58691C11.4851 7.58691 12.2587 7.80079 12.999 8.22852C14.8744 4.70808 15.6642 4.00011 16.3223 4ZM16.3105 4.5127C15.7183 4.41398 14.616 6.12509 13.2998 8.60938C12.0331 11.0442 11.5889 12.4756 11.5889 12.4756C11.5724 12.5413 11.5389 12.6073 11.4238 12.5908C11.1937 12.5415 10.9308 12.5244 10.6514 12.5244C10.3882 12.5244 10.1082 12.5415 9.87793 12.5908C9.76287 12.6073 9.72936 12.525 9.71289 12.4756C9.71289 12.4756 9.26858 11.0442 7.98535 8.60938C6.66918 6.14154 5.56689 4.41398 4.97461 4.5127C4.38269 4.61207 4.56399 6.783 5.04102 8.3457C5.45232 9.66186 5.82999 10.6165 6.35645 11.5049C6.80065 12.2617 7.16322 12.8211 7.39355 12.6895C7.62362 12.5741 6.80051 11.6856 6.02734 9.67871C5.25409 7.67154 4.99172 6.09233 5.37012 6.04297C5.7485 6.0111 6.32458 7.63857 6.98242 9.2832C7.64051 10.912 7.88671 12.1464 8.10059 12.8867C8.11703 12.9689 8.10089 13.0512 8.03516 13.1006C7.44291 13.5283 6.65317 14.4331 6.52148 15.5518C6.35696 16.9008 7.1957 19.007 6.91602 20.6357L4.46484 20.5039C4.36628 20.5039 4.26788 20.5861 4.26758 20.6846C4.25114 20.7832 4.34958 20.8827 4.44824 20.8828L7.98535 21.0635C8.2156 20.5207 8.74182 20.6027 8.74219 20.1426C8.74219 19.8959 8.62765 19.7964 8.49609 19.6484C7.98608 19.0397 7.12996 18.2007 7.03125 16.9668C6.96545 16.1936 7.16301 15.1737 7.78809 15.042C8.97263 14.7952 10.1572 17.5097 10.1572 19.2207C10.1572 19.9117 10.1898 20.1423 9.91016 20.5371C9.77854 20.7509 9.58137 21.0142 9.61426 21.2773C9.64716 21.6226 9.97602 21.7214 10.1406 21.8857C10.6342 22.3628 10.1245 23.1532 9.21973 23.1533C8.61108 23.1533 8.1169 22.8405 7.96875 22.2812L5.18848 22.4287C5.08997 22.4452 4.99169 22.5275 5.00781 22.626C5.00781 22.7411 5.10641 22.8076 5.20508 22.8076L7.45898 22.6592C8.10056 23.7614 9.92667 24.8143 10.6836 24.8145C11.4404 24.8145 13.283 23.7615 13.9082 22.6592L16.1621 22.8076C16.2608 22.8076 16.3594 22.7247 16.3594 22.626C16.3592 22.5274 16.2773 22.4451 16.1787 22.4287L13.3984 22.2812C13.2667 22.8404 12.7727 23.1533 12.1641 23.1533C11.2595 23.1531 10.7497 22.3628 11.2432 21.8857C11.4077 21.7213 11.7366 21.6227 11.7695 21.2773C11.8024 20.9977 11.6217 20.7345 11.4736 20.5371C11.2104 20.1258 11.2266 19.9117 11.2266 19.2207C11.2266 17.5097 12.4112 14.7954 13.5957 15.042C14.2209 15.1572 14.4019 16.1935 14.3525 16.9668C14.2538 18.2006 13.3821 19.0397 12.8721 19.6484C12.7569 19.7965 12.625 19.8958 12.625 20.1426C12.6254 20.6027 13.168 20.5207 13.3818 21.0635L16.9189 20.8828C17.0177 20.8828 17.1006 20.7833 17.1006 20.6846C17.1003 20.5862 17.0015 20.5039 16.8867 20.4873L14.4346 20.6191C14.1549 18.9904 14.9946 16.8842 14.8301 15.5352C14.6984 14.4166 13.9086 13.5117 13.3164 13.084C13.2506 13.0346 13.2335 12.9524 13.25 12.8701C13.4639 12.1298 13.7112 10.8962 14.3691 9.26758C15.0272 7.62236 15.603 5.99346 15.9814 6.02637C16.3597 6.07593 16.0964 7.65508 15.3232 9.66211C14.5665 11.6692 13.7441 12.5577 13.958 12.6729C14.1883 12.7876 14.5501 12.2448 14.9941 11.4883C15.5206 10.5999 15.8992 9.66173 16.3105 8.3291C16.7876 6.78271 16.952 4.59522 16.3105 4.5127ZM10.7168 23.2188C10.9142 23.449 11.2596 23.6954 11.6543 23.8105C11.3911 24.0738 11.0623 24.206 10.7168 24.2061C10.3878 24.2061 10.0425 24.0738 9.7793 23.8105C10.1575 23.6953 10.503 23.449 10.7168 23.2188ZM13.4482 21.4912C13.4811 21.6062 13.4803 21.7377 13.4639 21.8691L16.5898 21.8857C16.705 21.8857 16.7871 21.7872 16.7871 21.6885C16.8035 21.5569 16.7051 21.4746 16.6064 21.4746L13.4482 21.4912ZM4.82715 21.458C4.72858 21.458 4.62919 21.5567 4.62891 21.6553C4.62891 21.754 4.72844 21.8535 4.82715 21.8535L7.95312 21.8369C7.93667 21.7217 7.9523 21.6062 7.96875 21.4746L4.82715 21.458ZM8.92383 17.0654C8.72645 16.572 8.26555 16.3089 7.93652 16.5225C7.65684 16.687 7.60748 17.3291 7.93652 17.9707C8.2492 18.5792 8.93994 18.809 9.20312 18.6445C9.38391 18.5129 9.41723 18.266 9.23633 17.6904C9.21987 17.6248 9.18676 17.6088 9.12109 17.6416C9.08819 17.6581 8.84075 17.7399 8.72559 17.5918C8.54507 17.3452 8.8084 17.1804 8.89062 17.1475C8.9233 17.131 8.92383 17.0983 8.92383 17.0654ZM13.4805 16.5059C13.1515 16.2923 12.6906 16.5555 12.4932 17.0488C12.4932 17.0816 12.4937 17.1144 12.5264 17.1309C12.6086 17.1802 12.888 17.3449 12.707 17.5752C12.5754 17.7397 12.3453 17.6415 12.2959 17.625C12.2303 17.5922 12.1971 17.6083 12.1807 17.6738C11.9997 18.2497 12.0329 18.4973 12.2139 18.6289C12.4936 18.7932 13.1679 18.5625 13.4805 17.9541C13.8095 17.3125 13.7602 16.6704 13.4805 16.5059Z" fill="#222321"/>
</svg>
