<svg width="1440" height="380" viewBox="0 0 1440 380" fill="none" xmlns="http://www.w3.org/2000/svg">
<g clip-path="url(#clip0_1483_755)">
<path d="M1523 -433.192L1152.55 439.642L1093.78 439.642L1242.29 87.9647L1261.7 87.9647L1411.34 -263.506L1431.28 -264.325L1523 -478.817L1523 -433.192Z" fill="#1F291E"/>
<path d="M1523 -248.586L1229.35 439.642L1170.75 439.642L1319.76 88.0274L1339.6 88.0274L1489.33 -263.684L1508.96 -263.932L1523 -294.864L1523 -248.586Z" fill="#1F291E"/>
<path d="M1523 -63.4908L1309.09 439.642L1250.33 439.642L1398.98 88.4769L1418.75 88.4769L1523 -155.269L1523 -63.4908Z" fill="#1F291E"/>
<path d="M1523 120.021L1386.01 439.642L1327.31 439.642L1476.57 87.7017L1497.53 87.7017L1523 27.3789L1523 120.021Z" fill="#1F291E"/>
<path d="M1523 305.615L1465.6 439.641L1406.89 439.641L1523 166.974L1523 305.615Z" fill="#1F291E"/>
<path d="M-82.9985 348.35L28.0311 87.806L34.9067 87.806L184.234 -263.954L192.998 -263.954L340.32 -615.804L346.225 -615.804L-82.9985 393.979L-82.9985 348.35Z" fill="#1F291E"/>
<path d="M-82.9981 164.367L-50.5143 88.2714L-42.3969 88.2714L105.067 -263.722L113.192 -263.722L261.365 -615.804L267.947 -615.804L-82.9981 210.026L-82.9981 164.367Z" fill="#1F291E"/>
<path d="M-82.9977 -4.31505L28.1012 -264.071L33.8163 -264.071L182.485 -615.804L188.365 -615.804L-82.9977 24.7693L-82.9977 -4.31505Z" fill="#1F291E"/>
<path d="M1523 -615.804L1072.5 439.641L1033.76 439.641L1033.94 439.641L1085.43 315.001L1086.03 269.316L1162.95 87.9271L1182.73 87.9271L1332.44 -263.98L1351.73 -263.98L1502.14 -615.804L1523 -615.804Z" fill="#1F291E"/>
<path d="M1443.42 -615.804L995.216 439.641L955.489 439.641L1085.92 133.123L1085.92 87.8237L1105.11 87.8237L1254.67 -263.98L1274.67 -263.98L1423.56 -615.804L1443.42 -615.804Z" fill="#1F291E"/>
<path d="M1175.89 -263.883L1194.68 -263.945L1345.28 -615.804L1365.14 -615.804L916.93 439.641L877.209 439.641L1026.26 87.8237L1039.73 87.8237L1085.76 -22.9266L1085.76 -50.6434" fill="#1F291E"/>
<path d="M1285.56 -615.804L838.147 439.641L800.235 439.641L949.062 87.8237L961.86 87.8237L1086.36 -208.174L1085.91 -235.733L1098.1 -263.883L1117.31 -263.883L1265.77 -615.804L1285.56 -615.804Z" fill="#1F291E"/>
<path d="M1208.58 -615.804L759.711 439.641L720.653 439.641L869.07 87.8237L883.381 87.8237L1032.12 -263.339L1046.45 -264.4L1086.05 -357.782L1086.05 -375.412L1189.05 -615.804L1208.58 -615.804Z" fill="#1F291E"/>
<path d="M1129 -615.804L681.998 439.641L642.377 439.641L792.09 87.8237L805.139 87.8237L954.026 -263.67L967.893 -264.001L1085.37 -545.144L1085.37 -559.358L1109.19 -615.804L1129 -615.804Z" fill="#1F291E"/>
<path d="M1052.03 -615.804L602.83 439.641L564.096 439.641L712.982 87.8237L725.88 87.8237L875.256 -264.38L889.899 -264.38L1039.12 -615.804L1052.03 -615.804Z" fill="#1F291E"/>
<path d="M972.447 -615.804L523.842 439.641L485.821 439.641L633.849 87.8237L649.051 87.8237L796.653 -264.38L811.104 -264.38L959.222 -615.804L972.447 -615.804Z" fill="#1F291E"/>
<path d="M895.475 -615.804L445.332 439.641L427.113 439.641L427.299 439.641L445.284 395.499L445.284 348.492L530.371 149.43L556.272 87.8237L569.882 87.8237L718.641 -263.945L731.539 -263.945L882.562 -615.804L895.475 -615.804Z" fill="#1F291E"/>
<path d="M815.893 -615.804L367.658 439.641L348.835 439.641L445.564 212.153L445.564 167.488L477.084 87.8237L490.408 87.8237L641.086 -263.945L654.568 -263.945L802.679 -615.804L815.893 -615.804Z" fill="#1F291E"/>
<path d="M737.615 -615.804L289.711 439.641L270.558 439.641L418.572 87.8237L426.494 87.8237L445.241 43.999L445.241 13.4023L561.873 -263.945L574.646 -263.945L724.732 -615.804L737.615 -615.804Z" fill="#1F291E"/>
<path d="M659.336 -615.804L210.473 439.641L192.279 439.641L340.399 87.8237L348.856 87.8237L445.273 -143.274L445.273 -173.444L483.399 -263.945L497.59 -263.945L646.104 -615.804L659.336 -615.804Z" fill="#1F291E"/>
<path d="M581.057 -615.804L132.802 439.641L113.999 439.641L262.437 87.8237L269.199 87.8237L419.245 -263.945L425.918 -263.945L445.443 -312.593L445.443 -325.897L567.862 -615.804L581.057 -615.804Z" fill="#1F291E"/>
<path d="M502.781 -615.804L54.884 439.641L35.724 439.641L184.296 87.8237L191.144 87.8237L340.583 -263.945L348.098 -263.945L445.591 -495.863L445.591 -511.93L489.568 -615.804L502.781 -615.804Z" fill="#1F291E"/>
<path d="M-42.5553 439.641L105.738 87.8237L113.312 87.8237L262.894 -263.945L269.6 -263.945L418.21 -615.804L424.502 -615.804L-23.3682 439.641L-42.5553 439.641Z" fill="#1F291E"/>
</g>
<defs>
<clipPath id="clip0_1483_755">
<rect width="1440" height="380" fill="white"/>
</clipPath>
</defs>
</svg>
